<svg width="884" height="490" viewBox="0 0 884 490" fill="none" xmlns="http://www.w3.org/2000/svg">
<rect width="884" height="490" fill="white"/>
<g id="window">
<path id="Rectangle 1" d="M883.548 0.398998H179.972V451H883.548V0.398998Z" fill="#F8F7FC"/>
<path id="Rectangle 4" d="M883.248 0H179.672V29.89H883.248V0Z" fill="#4125C7"/>
<path id="Ellipse 4" d="M201.884 20.822C204.944 20.822 207.424 18.3417 207.424 15.282C207.424 12.2223 204.944 9.742 201.884 9.742C198.824 9.742 196.344 12.2223 196.344 15.282C196.344 18.3417 198.824 20.822 201.884 20.822Z" fill="#E6E6E6"/>
<path id="Ellipse 5" d="M222.913 20.822C225.973 20.822 228.453 18.3417 228.453 15.282C228.453 12.2223 225.973 9.742 222.913 9.742C219.853 9.742 217.373 12.2223 217.373 15.282C217.373 18.3417 219.853 20.822 222.913 20.822Z" fill="#E6E6E6"/>
<path id="Ellipse 6" d="M243.941 20.822C247.001 20.822 249.481 18.3417 249.481 15.282C249.481 12.2223 247.001 9.742 243.941 9.742C240.881 9.742 238.401 12.2223 238.401 15.282C238.401 18.3417 240.881 20.822 243.941 20.822Z" fill="#E6E6E6"/>
</g>
<g id="tabs">
<g id="tab1">
<path id="Rectangle 2" d="M496.187 60.907H242.187V321.907H496.187V60.907Z" fill="white"/>
<path id="Rectangle 5" d="M457.634 225.776H281.09V233.829H457.634V225.776Z" fill="#F8F7FC"/>
<path id="Rectangle 7" d="M457.634 277.776H281.09V285.829H457.634V277.776Z" fill="#F8F7FC"/>
<path id="Path 41" d="M281.187 90.907H457.187V191.907H281.187V90.907Z" fill="#F8F7FC"/>
<path id="Rectangle 20" d="M281.684 90.0413L280.689 91.776L456.689 192.776L457.684 191.041L281.684 90.0413Z" fill="white"/>
<path id="Rectangle 21" d="M456.618 89.9803L280.685 191.035L281.681 192.769L457.614 91.7143L456.618 89.9803Z" fill="white"/>
</g>
<g id="tab2">
<path id="Rectangle 3" d="M845.187 65.969H591.187V382.969H845.187V65.969Z" fill="white"/>
<path id="Path 1" d="M789.187 150.999H787.651V108.85C787.651 102.379 785.08 96.1725 780.504 91.5966C775.929 87.0207 769.722 84.45 763.251 84.45H673.951C667.48 84.45 661.273 87.0207 656.698 91.5966C652.122 96.1725 649.551 102.379 649.551 108.85V340.089C649.551 346.56 652.122 352.766 656.698 357.342C661.273 361.918 667.48 364.489 673.951 364.489H763.251C769.722 364.489 775.929 361.918 780.504 357.342C785.08 352.766 787.651 346.56 787.651 340.089V181.002H789.19L789.187 150.999Z" fill="#3F3D56"/>
<path id="Path 2" d="M763.237 90.8H751.58C752.116 92.1142 752.321 93.5402 752.176 94.9521C752.031 96.3641 751.541 97.7188 750.749 98.8969C749.958 100.075 748.888 101.04 747.636 101.708C746.383 102.375 744.985 102.724 743.566 102.724H692.407C690.987 102.724 689.59 102.375 688.337 101.708C687.084 101.04 686.015 100.075 685.223 98.8966C684.431 97.7184 683.941 96.3636 683.797 94.9514C683.652 93.5393 683.857 92.1133 684.393 90.799H673.505C668.673 90.799 664.039 92.7184 660.623 96.1349C657.206 99.5515 655.287 104.185 655.287 109.017V339.917C655.287 344.749 657.206 349.383 660.623 352.799C664.039 356.216 668.673 358.135 673.505 358.135H763.237C768.068 358.134 772.7 356.215 776.115 352.799C779.531 349.383 781.45 344.751 781.451 339.92V109.02C781.451 104.188 779.532 99.5544 776.115 96.1379C772.699 92.7214 768.065 90.802 763.233 90.802L763.237 90.8Z" fill="white"/>
<path id="Rectangle 8" d="M770.903 243.346H667.839V251.399H770.903V243.346Z" fill="#E6E6E6"/>
<path id="Rectangle 9" d="M770.903 268.346H667.839V276.399H770.903V268.346Z" fill="#E6E6E6"/>
<path id="Rectangle 10" d="M770.903 293.346H667.839V301.399H770.903V293.346Z" fill="#E6E6E6"/>
<path id="Rectangle 16" d="M747 138.99H689.742V196.248H747V138.99Z" fill="#4125C7"/>
<path id="Rectangle 22" d="M690.898 138.198L689.484 139.612L746.484 196.612L747.898 195.198L690.898 138.198Z" fill="white"/>
<path id="Rectangle 23" d="M746.484 138.198L689.484 195.198L690.898 196.612L747.898 139.612L746.484 138.198Z" fill="white"/>
</g>
</g>
<g id="squares">
<path id="Rectangle 11" d="M781.679 418.391V401.214H764.502V418.391H781.679Z" fill="#3F3D56"/>
<path id="Rectangle 12" d="M754.005 418.39V401.213H736.828V418.39H754.005Z" fill="#4125C7"/>
<path id="Rectangle 13" d="M726.33 418.391V401.214H709.153V418.391H726.33Z" fill="#3F3D56"/>
<path id="Rectangle 14" d="M698.656 418.39V401.213H681.479V418.39H698.656Z" fill="#3F3D56"/>
<path id="Rectangle 15" d="M670.981 418.391V401.214H653.804V418.391H670.981Z" fill="#3F3D56"/>
</g>
<g id="person2">
<path id="Rectangle 6" d="M457.634 251.776H281.09V259.829H457.634V251.776Z" fill="#4125C7"/>
<path id="Path 3" d="M346.605 275.593L345.864 277.075L343.641 265.958C343.641 265.958 340.676 254.1 346.606 254.1C352.536 254.1 351.053 265.958 351.053 265.958V274.11L346.605 275.593Z" fill="#A0616A"/>
<path id="Path 4" d="M443.851 274.075L444.592 275.557L446.815 264.44C446.815 264.44 449.78 252.582 443.85 252.582C437.92 252.582 439.403 264.44 439.403 264.44V272.593L443.851 274.075Z" fill="#A0616A"/>
<path id="Path 5" d="M379.215 358.94L370.322 413.784L374.768 467.145L385.144 462.699L383.662 422.677L394.038 390.808L396.261 428.608L391.815 467.888L405.155 469.371L414.79 388.587L414.049 361.165L379.215 358.94Z" fill="#303D67"/>
<path id="Path 6" d="M379.215 460.475L374.027 468.627V486.843C374.027 487.368 374.214 487.875 374.554 488.274C374.894 488.674 375.365 488.939 375.883 489.023C378.426 489.44 382.854 489.737 384.403 487.155C386.626 483.449 385.144 475.297 385.144 475.297C385.144 475.297 388.109 469.368 386.626 464.921C385.143 460.474 383.661 459.733 383.661 459.733L379.215 460.475Z" fill="#303D67"/>
<path id="Path 7" d="M401.451 467.887L402.933 470.11C402.933 470.11 405.156 472.333 403.674 473.816C402.586 474.968 401.594 476.208 400.709 477.522C400.709 477.522 392.557 479.745 392.557 476.781V467.15L401.451 467.887Z" fill="#303D67"/>
<path id="Ellipse 7" d="M398.778 298.619C404.204 298.619 408.602 294.221 408.602 288.795C408.602 283.369 404.204 278.971 398.778 278.971C393.352 278.971 388.954 283.369 388.954 288.795C388.954 294.221 393.352 298.619 398.778 298.619Z" fill="#A0616A"/>
<path id="Path 8" d="M392.185 291.867L391.444 305.949L404.784 306.69L404.043 292.608L392.185 291.867Z" fill="#A0616A"/>
<path id="Path 9" d="M406.637 307.06L404.537 301.92C404.537 301.92 394.783 298.166 391.818 301.872L390.336 306.319L378.474 303.35L371.804 318.173L377.733 360.418C377.733 360.418 393.297 380.429 414.049 361.159L419.978 321.138L415.532 305.574L406.637 307.06Z" fill="#F9C400"/>
<path id="Path 10" d="M414.049 308.543L415.531 305.578L430.354 296.684L439.4 269.907L446.4 272.907L438.506 304.837L417.013 324.847L414.049 308.543Z" fill="#F9C400"/>
<path id="Path 11" d="M379.956 304.837L378.474 303.355L362.91 293.72L351.793 271.486L342.9 274.45L352.534 301.872L376.251 321.142L379.956 304.837Z" fill="#F9C400"/>
<path id="Path 12" d="M406.07 273.75L407.676 272.95L405.267 272.15V271.35C405.267 271.35 393.22 266.531 391.614 274.563C389.541 277.349 388.422 280.728 388.422 284.2C388.422 287.673 389.541 291.052 391.614 293.838V296.247L404.464 297.853L406.07 293.034C406.07 293.034 414.101 278.569 406.07 273.75Z" fill="#2F2E41"/>
</g>
<g id="person1">
<path id="Path 17" d="M192.993 439.762C192.993 439.762 200.607 438.334 200.607 443.569C200.702 447.708 201.02 451.838 201.559 455.943C201.559 455.943 203.459 472.6 197.276 470.22C191.093 467.84 188.71 451.184 188.71 451.184C189.285 449.8 190.285 448.634 191.565 447.853C193.469 446.9 192.993 439.762 192.993 439.762Z" fill="#303D67"/>
<path id="Path 22" d="M193.568 360.245L192.919 363.371C192.919 363.371 189.948 375.579 194.254 374.734C198.56 373.889 199.682 363.254 199.682 363.254L198.994 360.285L193.568 360.245Z" fill="#FFB8B8"/>
<path id="Path 13" d="M112.09 359.81L109.235 361.238C109.235 361.238 97.813 366.473 101.145 369.328C104.477 372.183 113.519 366.473 113.519 366.473L115.419 364.093L112.09 359.81Z" fill="#FFB8B8"/>
<path id="Path 14" d="M195.633 359.1L186.807 418.347L173.481 459.747L166.343 456.416L173.005 399.784L153.969 383.603L155.397 359.803L195.633 359.1Z" fill="#303D67"/>
<path id="Path 15" d="M165.391 457.85C165.391 457.85 173.481 453.567 173.957 459.75L173.005 465.937C173.005 465.937 175.86 476.883 166.342 474.503C156.824 472.123 163.487 464.985 163.487 464.985L165.391 457.85Z" fill="#303D67"/>
<path id="Path 16" d="M160.156 378.37L153.969 383.605C153.969 383.605 153.969 415.966 158.252 420.725C162.535 425.484 189.662 449.755 190.613 450.707C191.564 451.659 195.848 441.189 195.848 441.189L170.151 411.207L172.051 392.65L160.156 378.37Z" fill="#303D67"/>
<path id="Path 18" d="M169.2 288.424L170.628 306.033L166.821 312.695L156.351 302.701L155.399 289.376L169.2 288.424Z" fill="#FFB8B8"/>
<path id="Ellipse 8" d="M160.632 294.135C166.94 294.135 172.054 289.021 172.054 282.713C172.054 276.405 166.94 271.291 160.632 271.291C154.324 271.291 149.21 276.405 149.21 282.713C149.21 289.021 154.324 294.135 160.632 294.135Z" fill="#FFB8B8"/>
<path id="Path 19" d="M165.391 305.557L170.15 291.757L178.716 301.275L194.421 361.714L182.521 368.853L177.287 361.238L176.335 371.232L153.015 366.473L151.115 302.702L155.871 296.002L165.391 305.557Z" fill="#FE9194"/>
<path id="Path 20" d="M158.728 373.135L155.873 296.035L149.686 300.794L138.264 308.408L145.879 335.535L148.258 364.089L158.728 373.135Z" fill="#303D67"/>
<path id="Path 21" d="M141.6 308.888L138.268 308.412L128.75 336.49L109.714 360.29L116.853 367.904L138.744 346.488L146.835 328.88L141.6 308.888Z" fill="#303D67"/>
<path id="Path 23" d="M169.406 290.983L192.993 300.322L190.138 328.876L195.849 360.286L190.138 366.472L169.022 295.028L169.406 290.983Z" fill="#303D67"/>
<path id="Path 24" d="M161.23 263.531L164.583 261.855V263.531L166.818 262.413V265.207C166.818 265.207 175.2 271.353 173.523 278.617C171.846 285.881 171.847 286.44 171.847 286.44C171.847 286.44 169.728 272.626 161.347 274.861C152.966 277.096 152.29 277.5 150.051 283.65L149.445 286.286C149.445 286.286 139.997 264.65 161.23 263.531Z" fill="#2F2E41"/>
<path id="Rectangle 17" d="M140.856 370.772H0.535034V468.283H140.856V370.772Z" fill="#4125C7"/>
<path id="Path 26" d="M70.6961 389.798C64.8162 389.798 59.0684 391.542 54.1795 394.808C49.2906 398.075 45.4802 402.718 43.23 408.15C40.9799 413.582 40.3912 419.56 41.5383 425.327C42.6854 431.094 45.5168 436.391 49.6745 440.549C53.8322 444.706 59.1294 447.538 64.8962 448.685C70.6631 449.832 76.6406 449.243 82.0729 446.993C87.5051 444.743 92.1482 440.932 95.4148 436.044C98.6815 431.155 100.425 425.407 100.425 419.527C100.425 415.623 99.6561 411.757 98.1621 408.15C96.668 404.543 94.4782 401.266 91.7176 398.505C88.957 395.745 85.6797 393.555 82.0729 392.061C78.466 390.567 74.6001 389.798 70.6961 389.798V389.798ZM70.6961 398.717C72.4601 398.717 74.1845 399.24 75.6512 400.22C77.1179 401.2 78.2611 402.593 78.9361 404.223C79.6112 405.853 79.7878 407.646 79.4437 409.376C79.0995 411.106 78.2501 412.695 77.0027 413.943C75.7554 415.19 74.1662 416.039 72.4361 416.384C70.7059 416.728 68.9126 416.551 67.2829 415.876C65.6532 415.201 64.2602 414.058 63.2802 412.591C62.3001 411.124 61.7771 409.4 61.7771 407.636C61.7771 406.465 62.0077 405.305 62.456 404.223C62.9042 403.141 63.5612 402.158 64.3894 401.329C65.2176 400.501 66.2008 399.844 67.2829 399.396C68.365 398.948 69.5248 398.717 70.6961 398.717V398.717ZM70.6961 441.653C67.1729 441.637 63.7069 440.761 60.5986 439.103C57.4904 437.444 54.8337 435.052 52.859 432.134C53.002 426.188 64.7511 422.915 70.6961 422.915C76.6411 422.915 88.3911 426.188 88.5331 432.134C86.5559 435.049 83.8986 437.439 80.7909 439.097C77.6831 440.755 74.2184 441.631 70.6961 441.65V441.653Z" fill="white"/>
<path id="Path 25" d="M189.662 300.322H193.469L199.656 333.635V362.665L192.042 361.237L185.855 317.454L189.662 300.322Z" fill="#303D67"/>
</g>
<g id="person3">
<path id="Path 27" d="M805.202 291.234L806.017 285.974C806.017 285.974 810.77 275.169 807.017 274.586C803.264 274.003 800.126 284.286 800.126 284.286L801.501 295.272L805.202 291.234Z" fill="#FFB8B8"/>
<path id="Path 28" d="M843.67 321.051L810.089 314.306L806.189 289.847L796.304 289.084L796.787 320.707L825.962 336L843.67 321.051Z" fill="#575A89"/>
<path id="Path 29" opacity="0.2" d="M843.67 321.051L810.089 314.306L806.189 289.847L796.304 289.084L796.787 320.707L825.962 336L843.67 321.051Z" fill="#69C4BF"/>
<path id="Rectangle 19" d="M752.313 284.764H855.377V276.711H752.313V284.764Z" fill="#4125C7"/>
<path id="Path 30" d="M798.641 289.43L798.648 284.107C798.648 284.107 801.704 272.707 797.902 272.7C794.1 272.693 792.566 283.339 792.566 283.339L795.594 293.988L798.641 289.43Z" fill="#FFB8B8"/>
<path id="Path 31" d="M842.351 304.675L846.958 303.552C848.716 303.554 850.453 303.166 852.042 302.414C853.632 301.663 855.035 300.567 856.149 299.207C857.263 297.847 858.061 296.256 858.485 294.55C858.909 292.844 858.948 291.064 858.6 289.341V289.341C858.603 287.305 858.205 285.288 857.428 283.406C856.652 281.523 855.512 279.812 854.074 278.371C852.636 276.929 850.928 275.785 849.048 275.003C847.167 274.222 845.151 273.819 843.115 273.817V273.817C841.079 273.814 839.062 274.213 837.18 274.989C835.298 275.766 833.588 276.906 832.147 278.344C830.705 279.782 829.561 281.49 828.78 283.37C827.999 285.25 827.596 287.266 827.594 289.302C826.998 291.376 826.958 293.569 827.476 295.664C827.994 297.758 829.053 299.68 830.548 301.236C832.042 302.793 833.918 303.929 835.99 304.533C838.061 305.136 840.255 305.185 842.351 304.675V304.675Z" fill="#2F2E41"/>
<path id="Path 32" d="M815.254 381.458L819.005 422.524L825.797 462.833L837.203 462.847L835.732 423.3L829.709 375.388L815.254 381.458Z" fill="#303D67"/>
<path id="Path 33" d="M827.321 460.55L819.711 465.103C819.711 465.103 807.543 466.608 809.819 470.413C812.095 474.218 838.712 471.97 838.714 470.449C838.716 468.928 837.966 460.563 836.445 460.561L827.321 460.55Z" fill="#303D67"/>
<path id="Path 34" d="M848.921 377.91C848.921 377.91 848.707 383.781 843.373 392.899L844.098 421.034L871.428 456.046L861.528 464.398L828.119 426.337L819.812 380.703L830.471 370.071L848.921 377.91Z" fill="#303D67"/>
<path id="Path 35" d="M869.151 456.044C869.151 456.044 878.274 457.576 876.751 461.376C875.228 465.176 871.402 482.66 861.519 480.367C861.519 480.367 856.957 480.361 858.481 477.322C859.397 475.494 860.415 473.718 861.529 472.003L861.541 462.118L869.151 456.044Z" fill="#303D67"/>
<path id="Ellipse 9" d="M837.415 305.447C843.714 305.447 848.821 300.34 848.821 294.041C848.821 287.742 843.714 282.635 837.415 282.635C831.116 282.635 826.009 287.742 826.009 294.041C826.009 300.34 831.116 305.447 837.415 305.447Z" fill="#FFB8B8"/>
<path id="Path 36" d="M842.728 301.652L842.712 314.578L830.546 314.563L832.083 301.639L842.728 301.652Z" fill="#FFB8B8"/>
<path id="Path 37" d="M827.51 309.997L831.197 309.091L842.718 310.016C842.718 310.016 848.793 316.107 848.031 317.627C847.269 319.147 843.42 356.401 843.42 356.401L850.23 383.023L825.896 384.513L813.732 382.977L816.073 335.077C816.073 335.077 810.767 322.144 817.615 318.35C821.485 316.321 824.864 313.471 827.515 309.998L827.51 309.997Z" fill="#69C4BF"/>
<path id="Path 38" d="M841.193 313.056L806.978 311.492L799.4 287.911L789.514 288.658L794.797 319.841L825.96 330.526L841.193 313.056Z" fill="#69C4BF"/>
<path id="Ellipse 10" d="M859.432 285.638C863.496 285.638 866.791 282.343 866.791 278.279C866.791 274.215 863.496 270.92 859.432 270.92C855.368 270.92 852.073 274.215 852.073 278.279C852.073 282.343 855.368 285.638 859.432 285.638Z" fill="#2F2E41"/>
<path id="Path 39" d="M852.641 274.324C852.642 273.236 852.885 272.162 853.352 271.179C853.819 270.196 854.498 269.329 855.341 268.64C856.183 267.951 857.168 267.458 858.224 267.196C859.28 266.934 860.381 266.909 861.448 267.124C860.506 266.679 859.481 266.44 858.44 266.421C857.399 266.402 856.366 266.604 855.409 267.014C854.452 267.425 853.593 268.034 852.889 268.801C852.185 269.568 851.651 270.475 851.324 271.464C850.997 272.452 850.884 273.499 850.991 274.535C851.099 275.57 851.425 276.571 851.949 277.472C852.472 278.372 853.181 279.15 854.027 279.756C854.874 280.362 855.84 280.781 856.861 280.986C855.598 280.391 854.531 279.449 853.784 278.271C853.036 277.092 852.64 275.725 852.641 274.329V274.324Z" fill="#2F2E41"/>
<path id="Path 40" d="M846.331 278.497L836.41 276.67L828.78 281.452C826.904 282.628 825.405 284.318 824.46 286.32C823.516 288.323 823.166 290.554 823.451 292.75L831.092 290.813L832.803 286.523L834.841 289.863L843.108 304.317L851.478 299.765L856.811 291.407L846.331 278.497Z" fill="#2F2E41"/>
</g>
</svg>
