<svg width="950" height="704" viewBox="0 0 950 704" fill="none" xmlns="http://www.w3.org/2000/svg">
<rect width="950" height="704" fill="white"/>
<g id="Frame 1">
<g id="floor">
<path id="Path 64" d="M455.5 661.748C707.066 661.748 911 671.148 911 682.748C911 694.348 707.066 703.748 455.5 703.748C203.934 703.748 0 694.348 0 682.748C0 671.148 203.934 661.748 455.5 661.748Z" fill="#615F72"/>
</g>
<g id="stalks">
<path id="Path 2" d="M823.49 674.918C826.49 669.408 823.09 662.658 819.21 657.738C815.33 652.818 810.6 647.738 810.7 641.448C810.84 632.448 820.39 627.138 828.03 622.368C833.688 618.825 838.907 614.626 843.58 609.858C845.541 608.024 847.163 605.857 848.37 603.458C849.94 599.938 849.9 595.938 849.8 592.078C849.467 579.238 848.833 566.411 847.9 553.598" stroke="#3F3D56" stroke-width="4" stroke-miterlimit="10"/>
<path id="Path 11" d="M802.33 668.568C802.33 668.568 813.4 668.228 816.74 665.848C820.08 663.468 833.74 660.628 834.61 664.448C835.48 668.268 851.26 683.448 838.75 683.508C826.24 683.568 809.69 681.508 806.36 679.508C803.03 677.508 802.33 668.568 802.33 668.568Z" fill="#303D67"/>
<path id="Path 13" d="M194.41 644.068C187.15 630.628 195.41 614.168 204.85 602.188C214.29 590.208 225.85 577.748 225.6 562.478C225.24 540.538 201.96 527.588 183.36 515.958C169.558 507.327 156.826 497.092 145.43 485.468C140.86 480.798 136.43 475.818 133.77 469.858C129.93 461.278 130.03 451.528 130.28 442.128C131.08 410.795 132.627 379.521 134.92 348.308" stroke="#3F3D56" stroke-width="4" stroke-miterlimit="10"/>
<path id="Path 12" opacity="0.2" d="M838.97 682.178C826.47 682.278 809.91 680.178 806.58 678.178C804.05 676.638 803.03 671.088 802.7 668.528H802.33C802.33 668.528 803.03 677.458 806.33 679.528C809.63 681.598 826.21 683.608 838.72 683.528C842.33 683.528 843.58 682.208 843.51 680.308C843.04 681.438 841.66 682.158 838.97 682.178Z" fill="black"/>
</g>
<g id="flowers">
<g id="flower8">
<path id="Path 3" d="M862.41 552.918C862.298 550.569 861.599 548.285 860.376 546.276C859.153 544.267 857.446 542.596 855.41 541.418L852.27 547.638L852.36 540.118C849.508 539.266 846.459 539.343 843.654 540.337C840.848 541.332 838.432 543.193 836.754 545.651C835.075 548.11 834.222 551.038 834.318 554.013C834.414 556.988 835.453 559.856 837.285 562.201C839.118 564.547 841.649 566.249 844.512 567.062C847.376 567.874 850.423 567.755 853.215 566.722C856.006 565.688 858.397 563.794 860.04 561.313C861.684 558.831 862.497 555.891 862.36 552.918H862.41Z" fill="#06C59A"/>
<path id="Path 7" opacity="0.1" d="M860.52 556.618C857.28 556.978 854.13 557.988 850.88 558.188C847.63 558.388 844.06 557.608 842 555.078C840.89 553.718 840.34 551.998 839.4 550.518C838.515 549.135 837.302 547.991 835.87 547.188C835.023 548.958 834.558 550.886 834.504 552.848C834.451 554.809 834.81 556.76 835.559 558.574C836.308 560.387 837.43 562.023 838.852 563.375C840.274 564.727 841.964 565.766 843.813 566.422C845.662 567.079 847.629 567.34 849.585 567.188C851.541 567.035 853.444 566.474 855.169 565.539C856.894 564.604 858.404 563.317 859.599 561.761C860.795 560.205 861.651 558.416 862.11 556.508C861.57 556.528 861.04 556.568 860.52 556.618Z" fill="black"/>
</g>
<g id="flower7">
<path id="Path 6" d="M864.52 597.918C862.351 598.021 860.189 597.619 858.202 596.743C856.215 595.867 854.459 594.542 853.072 592.872C851.685 591.202 850.705 589.232 850.21 587.119C849.714 585.005 849.716 582.805 850.215 580.692C850.715 578.58 851.698 576.612 853.088 574.944C854.478 573.277 856.237 571.954 858.225 571.082C860.213 570.21 862.377 569.812 864.545 569.919C866.713 570.026 868.827 570.635 870.72 571.698L868.24 578.498L873.34 573.598C876.077 576.099 877.709 579.584 877.88 583.288C877.944 584.585 877.822 585.885 877.52 587.148C876.82 590.113 875.172 592.769 872.826 594.713C870.48 596.657 867.564 597.782 864.52 597.918V597.918Z" fill="#06C59A"/>
<path id="Path 8" opacity="0.1" d="M864.52 597.918C862.1 598.041 859.689 597.533 857.523 596.445C855.358 595.356 853.512 593.724 852.166 591.708C850.821 589.693 850.022 587.362 849.847 584.945C849.672 582.528 850.128 580.106 851.17 577.918C852.284 578.67 853.242 579.631 853.99 580.748C854.99 582.258 855.59 583.998 856.77 585.388C858.95 587.958 862.69 588.798 866.08 588.638C869.47 588.478 872.73 587.528 876.08 587.218C876.54 587.218 877.02 587.138 877.49 587.128C876.795 590.092 875.153 592.749 872.813 594.696C870.472 596.643 867.561 597.774 864.52 597.918Z" fill="black"/>
</g>
<g id="flower6">
<path id="Path 5" d="M830.45 620.628C828.609 620.717 826.768 620.441 825.033 619.816C823.299 619.192 821.705 618.231 820.343 616.988C818.98 615.746 817.877 614.247 817.096 612.577C816.315 610.907 815.871 609.1 815.79 607.258C815.679 605.062 816.093 602.871 817 600.868C817.84 598.992 819.082 597.323 820.637 595.979C822.192 594.635 824.022 593.648 826 593.088L825.93 598.878L829.11 592.578C832.83 592.404 836.466 593.715 839.219 596.223C841.972 598.73 843.616 602.228 843.79 605.948C843.964 609.668 842.653 613.304 840.145 616.057C837.638 618.81 834.14 620.454 830.42 620.628H830.45Z" fill="#06C59A"/>
<path id="Path 9" opacity="0.1" d="M830.45 620.628C828.609 620.717 826.768 620.441 825.033 619.816C823.299 619.192 821.705 618.231 820.343 616.988C818.98 615.746 817.877 614.247 817.096 612.577C816.315 610.907 815.871 609.1 815.79 607.258C815.679 605.062 816.093 602.871 817 600.868C818.164 601.629 819.18 602.595 820 603.718C821.09 605.258 821.77 607.028 823 608.448C825.37 611.088 829.35 612.018 832.94 611.928C836.53 611.838 839.76 610.998 843.22 610.738C842.366 613.499 840.682 615.93 838.397 617.7C836.112 619.469 833.337 620.492 830.45 620.628Z" fill="black"/>
</g>
<g id="flower5">
<path id="Path 10" opacity="0.1" d="M837.38 647.918C836.634 649.611 835.56 651.141 834.22 652.417C832.88 653.694 831.3 654.692 829.572 655.356C827.845 656.019 826.003 656.334 824.153 656.283C822.303 656.231 820.481 655.814 818.793 655.056C817.105 654.297 815.584 653.212 814.317 651.863C813.05 650.514 812.063 648.927 811.412 647.195C810.761 645.462 810.459 643.618 810.524 641.769C810.589 639.919 811.019 638.101 811.79 636.418C812.942 637.184 813.979 638.11 814.87 639.168C816.2 640.798 817.08 642.638 818.63 644.168C821.5 646.978 826.13 648.168 830.25 648.248C832.631 648.279 835.012 648.169 837.38 647.918V647.918Z" fill="black"/>
<path id="Path 4" d="M837.38 647.918C835.91 650.773 833.504 653.035 830.565 654.327C827.625 655.619 824.331 655.861 821.234 655.013C818.138 654.165 815.427 652.278 813.556 649.669C811.684 647.06 810.767 643.887 810.957 640.681C811.147 637.476 812.433 634.434 814.599 632.064C816.766 629.694 819.681 628.141 822.856 627.665C826.031 627.189 829.274 627.818 832.04 629.448C834.806 631.078 836.928 633.61 838.05 636.618L829.29 643.748L838.93 641.508C838.931 643.738 838.4 645.935 837.38 647.918V647.918Z" fill="#06C59A"/>
</g>
<g id="flower4">
<path id="Path 15" d="M160.57 578.158C164.01 584.862 169.568 590.243 176.381 593.464C183.193 596.684 190.878 597.565 198.243 595.969C205.607 594.372 212.238 590.389 217.106 584.636C221.973 578.884 224.805 571.685 225.16 564.158C225.399 559.426 224.639 554.697 222.93 550.278C220.432 543.797 216.02 538.229 210.281 534.315C204.542 530.401 197.748 528.327 190.802 528.367C183.856 528.407 177.087 530.56 171.393 534.54C165.7 538.52 161.353 544.138 158.93 550.648L180.3 568.028L156.79 562.558C156.78 567.986 158.077 573.337 160.57 578.158Z" fill="#06C59A"/>
<path id="Path 21" opacity="0.1" d="M160.57 578.158C164.01 584.862 169.568 590.243 176.381 593.464C183.193 596.684 190.878 597.565 198.243 595.969C205.607 594.372 212.238 590.389 217.106 584.636C221.973 578.884 224.805 571.685 225.16 564.158C225.399 559.426 224.639 554.697 222.93 550.278C220.115 552.127 217.588 554.381 215.43 556.968C212.18 560.968 210.03 565.428 206.27 569.128C199.27 575.988 187.98 578.828 177.93 579.128C172.129 579.148 166.332 578.824 160.57 578.158V578.158Z" fill="black"/>
</g>
<g id="flower3">
<path id="Path 16" d="M177.46 511.738C185.85 512.122 194.087 509.407 200.605 504.11C207.122 498.814 211.464 491.305 212.805 483.015C214.145 474.724 212.389 466.23 207.873 459.15C203.356 452.069 196.393 446.897 188.31 444.618L188.49 458.708L180.79 443.378H180.7C171.634 442.955 162.77 446.151 156.06 452.263C149.35 458.375 145.343 466.902 144.92 475.968C144.497 485.034 147.693 493.898 153.805 500.608C159.916 507.318 168.444 511.325 177.51 511.748L177.46 511.738Z" fill="#06C59A"/>
<path id="Path 20" opacity="0.1" d="M177.46 511.738C183.299 512.012 189.111 510.786 194.341 508.176C199.571 505.565 204.045 501.659 207.336 496.828C210.628 491.997 212.626 486.404 213.142 480.582C213.657 474.759 212.672 468.902 210.28 463.568C207.462 465.44 205.012 467.812 203.05 470.568C200.39 474.318 198.73 478.638 195.62 482.098C189.85 488.528 180.15 490.798 171.4 490.588C162.93 490.408 154.77 488.328 146.35 487.678C148.435 494.399 152.539 500.315 158.106 504.62C163.673 508.925 170.431 511.411 177.46 511.738V511.738Z" fill="black"/>
</g>
<g id="flower2">
<path id="Path 17" d="M94.4 456.468C99.6972 456.726 104.982 455.749 109.837 453.615C114.692 451.481 118.984 448.247 122.376 444.169C125.767 440.092 128.164 435.282 129.377 430.119C130.591 424.956 130.588 419.582 129.368 414.421C128.149 409.259 125.747 404.452 122.351 400.378C118.955 396.304 114.659 393.075 109.802 390.947C104.944 388.818 99.6585 387.847 94.3616 388.111C89.0647 388.375 83.9016 389.867 79.28 392.468L85.28 409.038L72.89 397.068C69.5779 400.082 66.8926 403.72 64.9879 407.773C63.0833 411.826 61.9966 416.214 61.79 420.688C61.6312 423.853 61.9241 427.025 62.66 430.108C64.3609 437.357 68.3806 443.854 74.109 448.611C79.8373 453.369 86.9615 456.127 94.4 456.468V456.468Z" fill="#06C59A"/>
<path id="Path 19" opacity="0.1" d="M94.4 456.468C100.296 456.74 106.163 455.483 111.43 452.819C116.697 450.155 121.187 446.174 124.462 441.264C127.737 436.353 129.688 430.68 130.124 424.793C130.559 418.907 129.466 413.007 126.95 407.668C124.233 409.495 121.897 411.831 120.07 414.548C117.63 418.228 116.16 422.478 113.29 425.858C107.96 432.118 98.86 434.168 90.6 433.798C82.34 433.428 74.37 431.068 66.15 430.318C65.01 430.218 63.85 430.138 62.7 430.108C64.399 437.351 68.4128 443.843 74.1331 448.6C79.8535 453.356 86.9685 456.119 94.4 456.468V456.468Z" fill="black"/>
</g>
<g id="flower1">
<path id="Path 14" d="M99.55 346.598C99.8239 340.874 101.531 335.31 104.516 330.418C107.5 325.525 111.666 321.461 116.63 318.598L124.29 333.748L124.06 315.408C131.019 313.357 138.45 313.572 145.279 316.019C152.108 318.467 157.983 323.022 162.054 329.027C166.126 335.031 168.184 342.174 167.932 349.425C167.679 356.675 165.128 363.657 160.649 369.364C156.169 375.07 149.991 379.205 143.008 381.172C136.025 383.138 128.597 382.834 121.798 380.304C114.999 377.774 109.179 373.148 105.181 367.095C101.182 361.042 99.2098 353.875 99.55 346.628V346.598Z" fill="#06C59A"/>
<path id="Path 18" opacity="0.1" d="M104.15 355.718C112.05 356.588 119.73 359.038 127.65 359.528C135.57 360.018 144.28 358.128 149.29 351.968C151.99 348.648 153.34 344.448 155.62 340.828C157.78 337.455 160.742 334.669 164.24 332.718C166.418 337.054 167.65 341.804 167.852 346.653C168.054 351.501 167.223 356.338 165.413 360.84C163.604 365.343 160.857 369.409 157.356 372.769C153.855 376.129 149.679 378.706 145.105 380.329C140.532 381.952 135.666 382.584 130.83 382.182C125.994 381.78 121.298 380.355 117.055 378C112.812 375.645 109.118 372.414 106.219 368.523C103.32 364.631 101.282 360.168 100.24 355.428C101.57 355.488 102.87 355.578 104.15 355.718Z" fill="black"/>
</g>
</g>
<g id="boxes">
<g id="box8">
<path id="Path 22" d="M431.22 664.048L299.22 691.048L296.22 690.748L180.22 679.048V532.048L322.22 508.048L425.22 520.048L425.25 520.698L425.26 521.018L431.22 664.048Z" fill="#69C4BF"/>
<path id="Path 23" opacity="0.1" d="M431.22 664.048L299.22 691.048L296.22 690.748V540.048L425.25 520.698L431.22 664.048Z" fill="black"/>
<path id="Path 24" opacity="0.05" d="M425.26 521.018L425.22 521.048L296.22 540.048L180.22 532.048L322.22 508.048L425.22 520.048L425.25 520.698L425.26 521.018Z" fill="black"/>
</g>
<g id="box7">
<path id="Path 25" d="M576.22 670.048L444.22 697.048L441.22 696.748L325.22 685.048V538.048L467.22 514.048L570.22 526.048L570.25 526.698L570.26 527.018L576.22 670.048Z" fill="#303D67"/>
<path id="Path 26" opacity="0.1" d="M576.22 670.048L444.22 697.048L441.22 696.748V546.048L570.25 526.698L576.22 670.048Z" fill="black"/>
<path id="Path 27" opacity="0.05" d="M570.26 527.018L570.22 527.048L441.22 546.048L325.22 538.048L467.22 514.048L570.22 526.048L570.25 526.698L570.26 527.018Z" fill="black"/>
</g>
<g id="box6">
<path id="Path 28" d="M485.22 526.048L353.22 553.048L350.22 552.748L234.22 541.048V394.048L376.22 370.048L479.22 382.048L479.25 382.698L479.26 383.018L485.22 526.048Z" fill="#303D67"/>
<path id="Path 29" opacity="0.1" d="M485.22 526.048L353.22 553.048L350.22 552.748V402.048L479.25 382.698L485.22 526.048Z" fill="black"/>
<path id="Path 30" opacity="0.05" d="M479.26 383.018L479.22 383.048L350.22 402.048L234.22 394.048L376.22 370.048L479.22 382.048L479.25 382.698L479.26 383.018Z" fill="black"/>
</g>
<g id="box5">
<path id="Path 31" d="M560.22 532.208L491.33 546.308L489.76 546.148L429.22 540.038V463.318L503.33 450.788L557.09 457.058L557.11 457.398V457.558L560.22 532.208Z" fill="#303D67"/>
<path id="Path 32" opacity="0.1" d="M560.22 532.208L491.33 546.308L489.76 546.148V467.498L557.11 457.398L560.22 532.208Z" fill="black"/>
<path id="Path 33" opacity="0.05" d="M557.11 457.558L557.09 457.578L489.76 467.498L429.22 463.318L503.33 450.788L557.09 457.058L557.11 457.398V457.558Z" fill="black"/>
</g>
<g id="box5_2">
<path id="Path 34" d="M375.22 383.208L306.33 397.298L304.76 397.148L244.22 391.038V314.318L318.33 301.788L372.09 308.058L372.11 308.398V308.558L375.22 383.208Z" fill="#303D67"/>
<path id="Path 35" opacity="0.1" d="M375.22 383.208L306.33 397.298L304.76 397.148V318.498L372.11 308.398L375.22 383.208Z" fill="black"/>
<path id="Path 36" opacity="0.05" d="M372.11 308.558L372.09 308.578L304.76 318.498L244.22 314.318L318.33 301.788L372.09 308.058L372.11 308.398V308.558Z" fill="black"/>
</g>
<g id="box4">
<path id="Path 37" d="M496.22 380.208L427.33 394.298L425.76 394.148L365.22 388.038V311.318L439.33 298.788L493.09 305.058L493.11 305.398V305.558L496.22 380.208Z" fill="#69C4BF"/>
<path id="Path 38" opacity="0.1" d="M496.22 380.208L427.33 394.298L425.76 394.148V315.498L493.11 305.398L496.22 380.208Z" fill="black"/>
<path id="Path 39" opacity="0.05" d="M493.11 305.558L493.09 305.578L425.76 315.498L365.22 311.318L439.33 298.788L493.09 305.058L493.11 305.398V305.558Z" fill="black"/>
</g>
<g id="box3">
<path id="Path 40" d="M532.22 303.208L463.33 317.298L461.76 317.148L401.22 311.038V234.318L475.33 221.788L529.09 228.058L529.11 228.398V228.558L532.22 303.208Z" fill="#303D67"/>
<path id="Path 41" opacity="0.1" d="M532.22 303.208L463.33 317.298L461.76 317.148V238.498L529.11 228.398L532.22 303.208Z" fill="black"/>
<path id="Path 42" opacity="0.05" d="M529.11 228.558L529.09 228.578L461.76 238.498L401.22 234.318L475.33 221.788L529.09 228.058L529.11 228.398V228.558Z" fill="black"/>
</g>
<g id="box2">
<path id="Path 58" d="M405.22 306.208L336.33 320.298L334.76 320.148L274.22 314.038V237.318L348.33 224.788L402.09 231.058L402.11 231.398V231.558L405.22 306.208Z" fill="#69C4BF"/>
<path id="Path 59" opacity="0.1" d="M405.22 306.208L336.33 320.298L334.76 320.148V241.498L402.11 231.398L405.22 306.208Z" fill="black"/>
<path id="Path 60" opacity="0.05" d="M402.11 231.558L402.09 231.578L334.76 241.498L274.22 237.318L348.33 224.788L402.09 231.058L402.11 231.398V231.558Z" fill="black"/>
</g>
<g id="box1">
<path id="Path 61" d="M441.22 230.208L372.33 244.308L370.76 244.148L310.22 238.038V161.318L384.33 148.788L438.09 155.058L438.11 155.398V155.558L441.22 230.208Z" fill="#303D67"/>
<path id="Path 62" opacity="0.1" d="M441.22 230.208L372.33 244.308L370.76 244.148V165.498L438.11 155.398L441.22 230.208Z" fill="black"/>
<path id="Path 63" opacity="0.05" d="M438.11 155.558L438.09 155.578L370.76 165.498L310.22 161.318L384.33 148.788L438.09 155.058L438.11 155.398V155.558Z" fill="black"/>
</g>
</g>
<g id="person">
<path id="Path 48" d="M657.51 630.238C659.2 631.948 659.75 634.448 660.19 636.808C662.634 649.905 663.906 663.195 663.99 676.518C663.881 677.761 664.127 679.01 664.7 680.118C665.179 680.775 665.825 681.292 666.57 681.618C671.46 683.948 677.13 680.698 681.21 677.128C688.76 670.518 695.15 661.638 695.58 651.608C695.69 649.028 695.4 646.418 695.85 643.868C696.51 640.088 698.72 636.798 700.66 633.498C703.979 627.873 706.663 621.896 708.66 615.678C709.4 613.338 709.9 610.398 708.06 608.768C707.416 608.256 706.679 607.872 705.89 607.638L683.79 599.438C681.87 598.728 677.11 610.958 676.36 612.298C674.51 615.568 672.67 617.418 668.96 618.178C665.25 618.938 660.67 617.838 657.13 619.728C651.13 622.918 654.12 626.828 657.51 630.238Z" fill="#303D67"/>
<path id="Path 43" d="M579.14 146.368C578.41 152.868 573.45 158.108 571.61 164.368C568.85 173.818 573.61 183.968 580.17 191.368C585.457 197.248 591.858 202.02 599.002 205.409C606.146 208.797 613.892 210.734 621.79 211.108C624.11 211.308 626.447 211.053 628.67 210.358C630.649 209.552 632.433 208.332 633.9 206.778C638.82 201.828 641.47 194.978 642.52 188.068C643.57 181.158 643.17 174.128 642.76 167.158C642.759 165.716 642.495 164.285 641.98 162.938C641.31 161.657 640.389 160.524 639.27 159.608C635.723 156.349 631.814 153.507 627.62 151.138C625.82 150.138 623.89 149.138 622.74 147.408C621.951 146.03 621.438 144.512 621.23 142.938L619.94 136.378C619.712 134.487 619.066 132.669 618.05 131.058C615.78 127.998 611.43 127.578 607.62 127.428L593.62 126.878C589.27 126.708 583.55 125.458 579.3 126.318C575.3 127.108 576.65 130.768 577.37 134.088C578.412 138.103 579.005 142.222 579.14 146.368V146.368Z" fill="#FFC0C6"/>
<path id="Path 44" opacity="0.1" d="M579.14 146.368C578.41 152.868 573.45 158.108 571.61 164.368C568.85 173.818 573.61 183.968 580.17 191.368C585.457 197.248 591.858 202.02 599.002 205.409C606.146 208.797 613.892 210.734 621.79 211.108C624.11 211.308 626.447 211.053 628.67 210.358C630.649 209.552 632.433 208.332 633.9 206.778C638.82 201.828 641.47 194.978 642.52 188.068C643.57 181.158 643.17 174.128 642.76 167.158C642.759 165.716 642.495 164.285 641.98 162.938C641.31 161.657 640.389 160.524 639.27 159.608C635.723 156.349 631.814 153.507 627.62 151.138C625.82 150.138 623.89 149.138 622.74 147.408C621.951 146.03 621.438 144.512 621.23 142.938L619.94 136.378C619.712 134.487 619.066 132.669 618.05 131.058C615.78 127.998 611.43 127.578 607.62 127.428L593.62 126.878C589.27 126.708 583.55 125.458 579.3 126.318C575.3 127.108 576.65 130.768 577.37 134.088C578.412 138.103 579.005 142.222 579.14 146.368V146.368Z" fill="black"/>
<path id="Path 45" d="M668.05 439.128L662.11 504.248C660.56 521.328 658.98 538.478 655.94 555.338C654.94 561.148 653.66 566.928 652.2 572.658C648.14 588.568 642.25 604.118 640.35 620.428C640.29 620.898 640.24 621.428 640.19 621.858C639.8 625.458 639.46 629.098 638.19 632.458C637.19 634.948 635.78 637.218 634.75 639.678C632.75 644.598 632.43 650.038 632.18 655.368C624.972 651.299 617.077 648.587 608.89 647.368C604.89 646.778 600.54 646.368 597.89 643.368C594.89 640.108 595.24 635.118 595.74 630.738C597.313 617.138 598.88 603.545 600.44 589.958C600.96 584.112 601.963 578.319 603.44 572.638C603.98 570.748 604.63 568.888 605.29 567.028C606.2 564.468 607.12 561.908 607.81 559.278C608.767 555.052 609.429 550.765 609.79 546.448C611.4 532.768 613.34 519.118 615.04 505.448L615.13 504.728C617.68 484.008 619.62 463.188 619.06 442.318C618.98 439.228 618.85 436.138 618.65 433.038C618.37 428.548 617.96 426.168 621.65 423.358C625.76 420.258 631.17 418.088 635.87 416.058C638.4 414.958 666.26 405.058 666.87 407.238C668.163 411.869 668.836 416.65 668.87 421.458C668.926 427.359 668.653 433.258 668.05 439.128Z" fill="#303D67"/>
<path id="Path 46" opacity="0.1" d="M655.94 555.338C654.94 561.148 653.66 566.928 652.2 572.658C648.14 588.568 642.25 604.118 640.35 620.428C640.29 620.898 640.24 621.428 640.19 621.858C627.77 604.118 617.31 585.038 605.19 567.108C606.1 564.548 607.02 561.988 607.71 559.358C608.704 555.109 609.399 550.795 609.79 546.448C611.4 532.768 613.34 519.118 615.04 505.448L615.13 504.728C615.832 507.629 616.837 510.448 618.13 513.138C626.27 529.678 645.61 538.038 655.07 553.868C655.383 554.361 655.673 554.851 655.94 555.338Z" fill="black"/>
<path id="Path 47" d="M555.16 409.918C555.57 423.178 557.69 436.328 559.81 449.428L564.18 476.428C566.57 491.228 569.07 506.318 576.07 519.568C581.31 529.488 588.85 537.948 595.68 546.838C612.46 568.698 625.07 593.468 640.98 615.968C645.61 622.508 652.22 629.588 660.11 628.218C665.29 627.328 669.05 623.008 673.11 619.688C677.91 615.768 683.69 612.898 687.47 607.978C691.25 603.058 691.99 594.898 686.87 591.398C685.12 590.208 682.99 589.758 681.01 588.998C673.08 585.998 667.94 578.238 664.68 570.398C661.42 562.558 659.43 554.148 655.08 546.858C645.62 531.028 626.27 522.668 618.13 506.118C613.57 496.858 613.13 486.118 612.79 475.848L611.9 449.538C611.8 446.658 611.73 443.668 612.9 441.038C616.01 434.038 625.41 433.378 633.03 432.488C641.671 431.479 650.043 428.839 657.7 424.708C662.09 422.338 666.37 419.318 668.7 414.918C670.84 410.918 671.13 406.208 671.38 401.668L674.02 353.978C674.25 349.878 674.45 345.628 673.02 341.788C669.39 332.128 657.19 328.968 646.88 329.428C627.7 330.288 610 338.538 591.88 344.118C587.399 345.528 582.85 346.713 578.25 347.668C574.25 348.478 569.25 348.148 565.41 349.448C558.53 351.768 558.7 366.828 557.73 373.068C555.728 385.245 554.868 397.581 555.16 409.918V409.918Z" fill="#303D67"/>
<path id="Path 50" d="M577.54 109.718C577.469 108.99 577.575 108.256 577.85 107.578C578.66 106.148 580.78 106.578 582.38 106.938C588.81 108.558 595.59 107.088 602.22 107.468C608.85 107.848 616.31 111.158 617.64 117.658C622.45 114.254 626.595 109.997 629.87 105.098C631.71 102.348 633.31 99.198 633.06 95.898C632.7 91.138 628.71 87.578 625.06 84.558L614.06 75.558C612.611 74.2288 610.939 73.1659 609.12 72.418C606.58 71.548 603.8 71.968 601.12 71.968C593.12 71.968 584.54 68.318 577.41 71.968C574.41 73.498 572.18 76.128 570.02 78.688L560.19 90.328C559.446 91.07 558.902 91.9887 558.61 92.998C558.33 94.418 559.06 95.818 559.32 97.248C559.78 99.848 558.66 102.628 559.52 105.128C560.95 109.268 565.99 109.858 569.07 112.238C570.21 113.118 572.01 116.128 573.38 116.088C575.79 116.038 577.47 111.638 577.54 109.718Z" fill="#3F3D56"/>
<path id="Ellipse 2" d="M594.22 144.048C611.617 144.048 625.72 129.945 625.72 112.548C625.72 95.151 611.617 81.048 594.22 81.048C576.823 81.048 562.72 95.151 562.72 112.548C562.72 129.945 576.823 144.048 594.22 144.048Z" fill="#FFC0C6"/>
<path id="Path 51" d="M601.6 181.478C600.533 178.425 598.523 175.79 595.862 173.953C593.2 172.116 590.023 171.172 586.79 171.258C585.863 171.435 584.903 171.312 584.05 170.908C583.566 170.539 583.179 170.059 582.92 169.508C581.01 166.06 579.472 162.42 578.33 158.648C577.83 156.978 577.14 155.008 575.45 154.578C574.09 154.228 572.7 155.108 571.79 156.178C570.983 157.326 570.108 158.425 569.17 159.468C565.17 163.008 558.17 159.778 553.98 163.028C553.29 163.558 552.72 164.238 551.98 164.728C551.26 165.167 550.483 165.503 549.67 165.728C541.536 168.374 533.563 171.489 525.79 175.058C528.59 191.898 531.45 209.058 538.01 224.808C541.13 232.308 544.66 239.658 547.16 247.388C552.7 264.518 552.94 282.848 553.01 300.858C553.01 313.178 553.01 325.758 549.01 337.418C548.11 340.058 547.01 342.678 546.76 345.418C546.51 348.158 547.33 351.258 549.58 352.898C550.882 353.757 552.376 354.283 553.93 354.428C560.84 355.428 567.8 353.608 574.6 352.028C592.83 347.808 611.43 345.388 629.98 343.028L661.08 339.028C663.311 338.872 665.494 338.306 667.52 337.358C673.21 334.248 673.75 325.688 670.21 320.248C668.52 317.638 666.13 315.498 664.7 312.738C663.27 309.978 663.16 306.098 665.61 304.188C670.61 300.288 669.11 293.058 669.35 286.738C670.017 269.058 669.927 251.391 669.08 233.738C668.825 230.077 668.765 226.405 668.9 222.738C669.25 216.518 670.79 210.428 672.33 204.378L681.78 167.178C679.31 163.278 674.58 160.798 670.11 159.678C665.64 158.558 660.97 158.228 656.56 156.858C647.56 154.058 639.48 146.958 630.05 147.618C629.335 147.631 628.631 147.802 627.99 148.118C625.87 149.328 626.2 152.388 626.07 154.828C625.77 160.238 621.79 164.748 617.41 167.918C613.03 171.088 608.01 173.388 603.98 176.998C603.28 177.526 602.704 178.2 602.293 178.974C601.882 179.748 601.645 180.603 601.6 181.478V181.478Z" fill="#F9C400"/>
<path id="Path 53" d="M714.31 208.918L722.5 218.278C724.26 220.278 726.02 222.278 727.62 224.438C731.557 229.861 734.715 235.808 737 242.108C738.78 246.778 740.26 251.758 739.64 256.718C739.224 259.261 738.537 261.752 737.59 264.148C736.089 268.755 734.227 273.235 732.02 277.548C730.177 280.821 728.095 283.952 725.79 286.918C719.446 295.324 712.505 303.261 705.02 310.668C702.22 313.438 701.02 317.928 699.83 321.668C697.58 328.578 692.23 333.968 687.06 339.068C685.397 340.826 683.557 342.408 681.57 343.788C678.594 345.709 675.112 346.697 671.57 346.628C670.025 346.637 668.495 346.32 667.08 345.698C663.54 344.018 661.74 339.928 661.37 336.028C661.043 332.484 661.636 328.916 663.09 325.668C667.79 315.258 679.86 310.748 688.39 303.148C693.39 298.698 697.22 293.098 701 287.568C703.56 284.111 705.699 280.362 707.37 276.398C709.27 271.308 708.53 265.288 710.2 260.128C710.9 257.938 712.2 255.968 712.91 253.798C713.62 251.628 713.86 249.058 712.53 247.188C711.533 245.993 710.26 245.059 708.82 244.468C703.37 241.708 697.27 238.148 696.23 232.118C695.813 228.779 696.686 225.406 698.67 222.688C700.643 220.004 702.952 217.585 705.54 215.488C707.91 213.348 711.92 210.978 714.31 208.918Z" fill="#FFC0C6"/>
<path id="Path 55" d="M575.88 99.808C575.817 99.0795 575.927 98.3464 576.2 97.668C577.01 96.228 579.13 96.668 580.73 97.028C587.16 98.648 593.94 97.178 600.57 97.558C607.2 97.938 614.65 101.248 615.99 107.748C620.795 104.338 624.94 100.082 628.22 95.188C630.06 92.428 631.66 89.278 631.41 85.978C631.05 81.218 627.05 77.658 623.41 74.648L612.41 65.648C610.965 64.319 609.296 63.256 607.48 62.508C604.93 61.638 602.16 62.058 599.48 62.058C591.48 62.058 582.9 58.408 575.77 62.058C572.77 63.588 570.54 66.218 568.38 68.778L558.54 80.418C557.8 81.1617 557.26 82.08 556.97 83.088C556.69 84.508 557.42 85.908 557.68 87.338C558.14 89.938 557.02 92.718 557.88 95.208C559.31 99.358 564.35 99.948 567.43 102.328C568.57 103.208 570.37 106.218 571.74 106.178C574.11 106.128 575.79 101.728 575.88 99.808Z" fill="#3F3D56"/>
<path id="Path 57" d="M690.39 174.258C693.198 176.081 695.73 178.297 697.91 180.838C700.18 183.768 701.47 187.368 703.66 190.368C705.85 193.368 708.66 195.528 711.06 198.208C714.71 202.268 717.18 207.208 719.6 212.118C713.676 219.826 707.22 227.11 700.28 233.918C699.506 234.828 698.485 235.495 697.34 235.838C696.564 235.921 695.779 235.811 695.057 235.516C694.334 235.221 693.696 234.751 693.2 234.148C692.12 233.028 691.36 231.628 690.33 230.458C687.903 227.955 684.669 226.393 681.2 226.048C677.76 225.713 674.298 225.663 670.85 225.898C670.093 225.988 669.326 225.859 668.64 225.528C668.129 225.177 667.716 224.702 667.44 224.148C663.44 217.268 664.69 208.628 666.12 200.768L669.39 182.768C669.867 179.331 670.785 175.97 672.12 172.768C673.36 170.118 676.12 165.618 679.54 166.418C682.96 167.218 687.5 172.178 690.39 174.258Z" fill="#F9C400"/>
<path id="Path 56" d="M508.98 186.128C507.71 186.952 506.594 187.991 505.68 189.198C504.53 190.948 504.29 193.198 503.3 194.998C501.18 198.938 496.21 200.348 493.12 203.578C492.619 204.02 492.269 204.607 492.12 205.258C492.101 206.138 492.395 206.995 492.95 207.678L507.89 231.158C512.89 231.598 517.63 228.478 522.61 228.898C524.46 229.048 526.37 229.688 528.15 229.138C529.422 228.571 530.616 227.842 531.7 226.968C534.7 225.088 538.62 224.868 541.11 222.398C543.6 219.928 543.81 216.298 543.78 212.928C543.825 210.003 543.526 207.083 542.89 204.228C540.69 195.228 533.8 188.288 529.48 180.308C527.37 176.418 526.23 174.148 521.78 176.818C517.33 179.488 513.19 183.048 508.98 186.128Z" fill="#F9C400"/>
<path id="Path 52" d="M476.79 216.768C474.704 218.124 472.486 219.267 470.17 220.178C467.97 221.048 465.62 221.738 463.82 223.258C462.929 224.031 462.181 224.955 461.61 225.988C460.544 227.879 460.006 230.021 460.05 232.191C460.094 234.361 460.72 236.48 461.862 238.326C463.004 240.171 464.621 241.677 466.543 242.685C468.465 243.694 470.622 244.168 472.79 244.058C475.68 243.908 478.41 242.738 481.06 241.588L503.28 231.918C507.04 230.288 511.1 228.388 512.88 224.688C513.084 224.342 513.162 223.935 513.1 223.538C512.928 223.102 512.6 222.746 512.18 222.538C507.173 219.28 502.793 215.148 499.25 210.338C498.34 209.098 497.25 206.178 495.93 205.428C491.23 202.818 480.56 214.328 476.79 216.768Z" fill="#FFC0C6"/>
<path id="Path 54" d="M471.53 229.828C470.09 226.908 468.28 223.928 465.36 222.478C463.939 221.865 462.408 221.549 460.86 221.549C459.312 221.549 457.781 221.865 456.36 222.478C453.53 223.701 450.88 225.303 448.48 227.238L441.42 232.448C439.82 233.498 438.404 234.806 437.23 236.318C436.11 238.153 435.369 240.193 435.05 242.318C434.05 247.188 433.24 252.198 433.94 257.128C435.06 265.128 439.86 272.048 445.14 278.128C448.44 281.908 452.52 285.728 457.54 285.898C459.71 285.968 462.12 285.108 463.02 283.138C463.334 282.355 463.5 281.521 463.51 280.678C464.05 271.798 460.87 263.128 457.17 255.038C456.17 252.838 455.09 250.558 455.17 248.148C455.139 247.739 455.245 247.331 455.47 246.988C455.787 246.655 456.213 246.446 456.67 246.398C461.74 245.398 470.48 249.338 474.03 243.708C476.33 239.988 473.17 233.138 471.53 229.828Z" fill="#FFC0C6"/>
<path id="Path 49" d="M623.43 637.788C623.02 636.971 622.449 636.247 621.75 635.658C620.729 635.008 619.566 634.613 618.36 634.508C614.16 633.788 609.18 633.318 606.27 636.448C603.55 639.378 604.02 644.148 601.75 647.448C600.922 648.404 600.147 649.406 599.43 650.448C598.659 652.132 598.316 653.98 598.43 655.828C598.31 660.918 598.19 666.028 598.55 671.108C598.84 675.368 599.55 679.838 602.22 683.178C606.5 688.538 614.22 689.308 621.06 689.648L626.61 689.938C628.136 690.117 629.683 689.973 631.15 689.518C632.059 689.1 632.875 688.503 633.549 687.762C634.222 687.022 634.74 686.153 635.07 685.208C637.96 678.028 633.39 670.298 630.57 663.098C627.32 654.808 627.9 645.618 623.43 637.788Z" fill="#303D67"/>
</g>
</g>
</svg>
