<svg width="1138" height="815" viewBox="0 0 1138 815" fill="none" xmlns="http://www.w3.org/2000/svg">
<rect width="1138" height="815" fill="white"/>
<g id="Frame 1">
<g id="back">
<path id="Path 1" opacity="0.1" d="M12.293 406.506C30.293 476.656 68.403 537.296 128.633 566.686C253.853 627.776 536.083 596.266 746.753 560.106C855.753 541.396 951.493 489.806 1021.08 417.106L12.293 406.506Z" fill="#6C63FF"/>
<path id="Path 2" opacity="0.1" d="M1117.06 76.316H1001.47C995.973 76.316 991.473 72.216 991.473 67.206C991.473 62.196 995.963 58.096 1001.47 58.096H1021.47C1015.97 58.096 1011.47 53.996 1011.47 48.986C1011.47 43.976 1015.96 39.886 1021.47 39.886H1007.2C1001.7 39.886 997.203 35.786 997.203 30.776C997.203 25.766 1001.69 21.666 1007.2 21.666H1067.53C1054.14 15.986 1038.53 11.956 1020.47 9.846C855.963 -9.424 797.223 3.316 776.473 16.426C750.68 32.9352 721.99 44.4013 691.923 50.216C590.423 69.306 400.603 92.276 228.553 42.856C143.043 18.306 79.4929 59.856 41.3929 129.166H1137.13C1135.7 109.006 1131.42 90.386 1123.56 74.096C1121.71 75.5452 1119.42 76.3272 1117.06 76.316V76.316Z" fill="#6C63FF"/>
<path id="Path 3" opacity="0.1" d="M2.48296 260.086C-1.95221 300.885 -0.43977 342.112 6.97296 382.476L1021.85 416.316C1049.82 387.101 1073.55 354.114 1092.36 318.316L2.48296 260.086ZM403.853 347.396H383.853C389.343 347.396 393.853 351.496 393.853 356.506C393.853 361.516 389.353 365.606 383.853 365.606H268.313C262.823 365.606 258.313 361.516 258.313 356.506C258.313 351.496 262.813 347.396 268.313 347.396H288.313C282.823 347.396 278.313 343.296 278.313 338.286C278.313 333.276 282.813 329.176 288.313 329.176H274.023C268.533 329.176 264.023 325.086 264.023 320.076C264.023 315.066 268.523 310.966 274.023 310.966H389.613C395.113 310.966 399.613 315.066 399.613 320.076C399.613 325.086 395.123 329.176 389.613 329.176H403.853C409.353 329.176 413.853 333.276 413.853 338.286C413.853 343.296 409.383 347.396 403.853 347.396Z" fill="#6C63FF"/>
<path id="Path 4" opacity="0.1" d="M1137.18 129.796L29.1829 154.366C15.6829 185.956 6.75293 221.666 2.63293 258.686H1117.76C1125.02 237.024 1130.41 214.779 1133.86 192.196C1137.18 170.436 1138.51 149.396 1137.18 129.796ZM227.603 210.306H207.603C213.093 210.306 217.603 214.406 217.603 219.416C217.603 224.426 213.103 228.526 207.603 228.526H92.0229C86.5329 228.526 82.0229 224.426 82.0229 219.416C82.0229 214.406 86.5229 210.306 92.0229 210.306H112.023C106.533 210.306 102.023 206.216 102.023 201.206C102.023 196.196 106.523 192.096 112.023 192.096H97.7329C92.2429 192.096 87.7329 187.996 87.7329 182.986C87.7329 177.976 92.2329 173.876 97.7329 173.876H213.323C218.823 173.876 223.323 177.976 223.323 182.986C223.323 187.996 218.833 192.096 213.323 192.096H227.603C233.093 192.096 237.603 196.196 237.603 201.206C237.603 206.216 233.093 210.306 227.603 210.306Z" fill="#6C63FF"/>
</g>
<g id="person2">
<path id="Path 5" d="M577.473 300.326C575.313 285.786 562.103 251.856 562.103 251.856C561.873 250.856 561.613 249.856 561.323 248.856C551.953 216.656 538.983 213.856 538.983 213.856L492.523 203.856C492.913 204.099 493.252 204.415 493.523 204.786C493.278 204.809 493.034 204.845 492.793 204.896C490.666 202.385 489.259 199.343 488.723 196.096C488.633 195.616 488.553 195.096 488.493 194.606C491.83 191.353 494.432 187.425 496.126 183.084C497.82 178.743 498.566 174.09 498.314 169.437C498.063 164.784 496.818 160.239 494.666 156.106C492.513 151.974 489.501 148.349 485.833 145.476C485.343 145.096 484.833 144.726 484.343 144.376C486.533 142.046 486.603 138.806 484.963 135.566C481.303 127.966 473.343 123.156 465.163 120.806C458.913 119.016 452.163 118.436 445.943 120.396C442.413 121.516 439.193 123.396 435.883 125.066C429.713 128.146 422.883 130.586 418.273 135.656C417.193 136.836 416.193 138.346 416.513 139.906C416.753 141.066 417.673 141.966 418.263 142.996C419.593 145.306 419.263 148.216 418.353 150.736C417.443 153.256 416.113 155.596 415.483 158.176C414.853 160.756 415.093 163.796 417.033 165.646C417.963 166.364 418.931 167.032 419.933 167.646C420.994 168.551 421.927 169.597 422.703 170.756C424.543 173.223 426.376 175.699 428.203 178.186C430.782 181.482 433.086 184.984 435.093 188.656C436.463 191.356 437.523 194.236 439.353 196.656C439.889 197.362 440.503 198.006 441.183 198.576L440.643 198.366C441.438 199.175 442.39 199.814 443.441 200.242C444.492 200.67 445.619 200.879 446.753 200.856H447.033C447.45 200.847 447.85 200.683 448.153 200.396C448.153 200.736 448.153 201.076 448.153 201.396C448.263 204.966 448.243 208.766 447.993 212.336L447.563 212.116C446.925 211.799 446.21 211.67 445.502 211.744C444.793 211.819 444.121 212.093 443.563 212.536L400.793 246.856C400.793 246.856 391.493 259.576 392.793 281.536L385.293 314.466C385.293 314.466 375.923 342.406 383.133 362.356C390.343 382.306 394.523 393.716 394.523 393.716C394.523 393.716 397.403 416.386 401.733 418.236C406.063 420.086 407.933 421.086 407.933 421.086L408.793 426.506C408.793 426.506 409.083 427.036 409.593 427.926C412.743 433.406 424.413 452.746 431.193 450.676C432.046 455.928 432.415 461.247 432.293 466.566L439.003 511.616C439.003 511.616 443.683 523.866 443.393 530.286C443.103 536.706 448.853 545.856 448.853 545.856C445.36 552.251 444.335 559.706 445.973 566.806C448.713 578.806 452.173 634.086 452.173 634.086L457.173 647.486L457.033 663.196C456.622 665.758 455.554 668.17 453.933 670.196C450.693 673.716 450.933 677.786 443.123 682.596C435.313 687.406 430.363 689.226 430.363 695.596C430.353 696.484 430.273 697.37 430.123 698.246C429.403 702.926 428.003 705.466 442.363 706.826C459.233 708.426 470.483 697.426 470.483 697.426C470.483 697.426 472.963 692.926 484.643 691.106C484.643 691.106 488.643 690.896 488.853 687.366C488.933 686.146 488.913 683.816 488.853 681.246C488.663 676.356 488.193 670.646 487.573 670.366C486.793 670.016 485.433 665.096 484.963 663.316H488.213C488.213 663.316 491.213 640.646 488.213 625.966C485.213 611.286 487.923 600.876 487.923 600.876L487.343 562.106C487.343 562.106 483.343 557.826 486.483 550.266C489.623 542.706 486.483 505.366 486.483 505.366C486.483 505.366 487.643 491.966 490.953 488.826C494.263 485.686 491.113 469.196 490.953 468.336L496.853 488.126C496.853 488.126 499.443 527.466 504.933 534.586L506.513 552.406C506.513 552.406 517.753 568.806 515.593 577.636C513.433 586.466 517.903 618.406 517.903 618.406V651.056C517.903 651.056 512.853 664.166 519.903 668.876L522.903 668.756C521.903 669.686 521.133 671.086 519.963 672.296C518.613 673.686 517.843 678.976 517.413 683.526C517.053 687.376 516.933 690.686 516.933 690.686C516.933 690.686 519.933 695.486 525.583 695.816C531.233 696.146 549.853 710.306 549.853 710.306C549.853 710.306 568.243 710.306 573.003 709.306L573.283 709.236C574.811 708.755 576.096 707.707 576.873 706.306C577.826 704.681 578.133 702.757 577.733 700.916C577.143 698.106 574.913 695.026 569.973 692.406C557.683 685.926 555.853 679.856 555.853 679.856L547.783 667.746H548.933C548.933 667.746 548.223 654.916 557.003 640.516L556.433 577.086C556.433 577.086 560.033 555.276 553.843 543.436C553.843 543.436 553.333 530.896 557.473 527.046C561.613 523.196 551.963 484.286 551.963 484.286C551.963 484.286 549.963 463.396 547.613 444.336C557.343 453.566 567.433 420.336 569.133 414.426H569.383L569.273 413.996C569.343 413.716 569.383 413.576 569.383 413.576C569.383 413.576 567.223 405.896 568.803 407.456C570.383 409.016 574.283 403.176 574.283 403.176C574.283 403.176 573.703 371.386 580.483 355.366C587.263 339.346 577.473 300.326 577.473 300.326ZM548.473 320.556L548.523 320.466C549.523 339.876 548.333 381.296 548.333 381.296C548.333 381.296 546.993 386.606 545.563 392.856L544.563 353.506L543.563 316.436L548.473 320.556ZM424.363 307.176C424.363 307.176 429.263 368.466 424.363 377.306C422.973 379.826 421.803 384.306 420.833 389.416C419.213 385.166 415.783 375.186 417.013 369.896C418.603 363.056 413.843 345.086 413.843 344.666C413.843 344.246 413.413 334.666 416.843 327.346C420.273 320.026 418.023 316.856 418.023 316.856C418.023 316.856 420.903 304.856 424.363 307.176Z" fill="url(#paint0_linear)"/>
<path id="Path 7" d="M568.033 414.506C568.02 414.651 567.983 414.793 567.923 414.926C567.896 415.08 567.853 415.231 567.793 415.376C566.123 421.236 556.223 454.226 546.663 445.066C536.203 435.066 541.283 411.946 541.283 411.946H541.353L563.353 409.696L567.713 414.176L568.033 414.506Z" fill="#D38884"/>
<path id="Path 8" d="M555.303 576.856L555.863 639.856C547.233 654.156 547.943 666.856 547.943 666.856L519.503 667.976C512.563 663.306 517.503 650.296 517.503 650.296V617.856C517.503 617.856 513.113 586.166 515.233 577.386C517.353 568.606 506.323 552.386 506.323 552.386L504.763 534.696C499.383 527.626 496.833 488.576 496.833 488.576L491.063 468.856C491.223 469.706 494.223 486.166 491.063 489.196C487.903 492.226 486.673 505.606 486.673 505.606C486.673 505.606 489.783 542.686 486.673 550.176C483.563 557.666 487.513 561.926 487.513 561.926L488.083 600.416C488.083 600.416 485.393 610.746 488.363 625.316C491.333 639.886 488.363 662.396 488.363 662.396H457.853L457.993 646.686L453.053 633.386C453.053 633.386 449.653 578.486 446.963 566.596C445.353 559.55 446.355 552.159 449.783 545.796C449.783 545.796 444.133 536.746 444.413 530.376C444.693 524.006 440.053 511.856 440.053 511.856L433.473 467.146C433.654 458.541 432.555 449.958 430.213 441.676C426.393 428.936 420.733 412.236 420.733 412.236L427.123 412.806L459.363 415.676C459.363 415.676 537.753 410.406 541.263 414.786C542.003 416.218 542.503 417.762 542.743 419.356C546.263 435.166 550.913 484.696 550.913 484.696C550.913 484.696 560.393 523.326 556.323 527.146C552.253 530.966 552.753 543.406 552.753 543.406C558.853 555.156 555.303 576.856 555.303 576.856Z" fill="#303D67"/>
<path id="Path 9" d="M489.033 686.286C488.813 689.796 484.903 690.006 484.903 690.006C473.443 691.806 471.003 696.266 471.003 696.266C471.003 696.266 460.003 707.196 443.413 705.606C429.313 704.246 430.683 701.736 431.413 697.086C431.555 696.22 431.632 695.344 431.643 694.466C431.643 688.096 436.523 686.286 444.163 681.466C451.803 676.646 451.593 672.656 454.773 669.156C457.953 665.656 458.283 658.866 458.283 658.866C461.883 652.596 471.013 659.866 471.013 659.866C471.443 662.086 485.013 661.776 485.013 661.776C485.013 661.776 486.813 668.996 487.743 669.416C488.353 669.696 488.813 675.356 488.993 680.216C489.093 682.766 489.113 685.076 489.033 686.286Z" fill="#303D67"/>
<path id="Path 10" opacity="0.1" d="M489.033 686.286C488.813 689.796 484.903 690.006 484.903 690.006C473.443 691.806 471.003 696.266 471.003 696.266C471.003 696.266 460.003 707.196 443.413 705.606C429.313 704.246 430.683 701.736 431.413 697.086C437.713 698.646 449.753 700.826 456.783 697.006C466.553 691.706 473.563 688.006 473.563 688.006L489.003 680.236C489.093 682.766 489.113 685.076 489.033 686.286Z" fill="black"/>
<path id="Path 11" d="M575.403 705.176C574.651 706.565 573.389 707.608 571.883 708.086L571.613 708.156C566.943 709.156 548.893 709.156 548.893 709.156C548.893 709.156 530.643 695.046 525.123 694.726C519.603 694.406 516.633 689.626 516.633 689.626C516.633 689.626 516.743 686.346 517.093 682.526C517.523 678.006 518.273 672.756 519.603 671.376C522.043 668.826 522.603 665.376 528.093 667.556C528.093 667.556 535.933 653.736 545.173 664.416L554.733 678.916C554.733 678.916 556.533 684.916 568.643 691.426C573.483 694.026 575.643 697.086 576.253 699.876C576.638 701.687 576.335 703.576 575.403 705.176Z" fill="#303D67"/>
<path id="Path 12" opacity="0.1" d="M575.403 705.176C574.323 706.086 573.133 707.066 571.883 708.086L571.613 708.156C566.943 709.156 548.893 709.156 548.893 709.156C548.893 709.156 530.643 695.046 525.123 694.726C519.603 694.406 516.633 689.626 516.633 689.626C516.633 689.626 516.743 686.346 517.093 682.526C522.713 684.206 531.223 687.176 533.503 690.376C537.003 695.246 547.633 702.046 547.633 702.046C547.633 702.046 567.453 700.136 576.253 699.876C576.638 701.687 576.335 703.576 575.403 705.176Z" fill="black"/>
<path id="Path 13" d="M498.273 211.386L472.173 238.976C472.173 238.976 440.543 236.646 446.063 227.306C448.873 222.546 449.313 212.586 449.063 203.926C448.833 195.576 447.973 188.466 447.973 188.466C447.973 188.466 492.333 166.386 488.973 186.976C488.249 190.856 488.208 194.832 488.853 198.726C490.743 209.126 498.273 211.386 498.273 211.386Z" fill="#D38884"/>
<path id="Path 14" opacity="0.1" d="M488.933 186.976C488.209 190.856 488.168 194.832 488.813 198.726C485.779 201.801 482.163 204.241 478.177 205.905C474.19 207.568 469.913 208.422 465.593 208.416C459.593 208.416 453.103 203.486 448.253 200.636C448.023 192.276 447.973 188.466 447.973 188.466C447.973 188.466 492.333 166.386 488.933 186.976Z" fill="black"/>
<path id="Path 15" d="M498.273 174.026C498.276 181.433 495.763 188.621 491.147 194.413C486.53 200.205 480.084 204.257 472.863 205.907C465.643 207.556 458.076 206.705 451.402 203.492C444.729 200.279 439.344 194.895 436.131 188.222C432.917 181.549 432.064 173.982 433.713 166.761C435.362 159.54 439.413 153.094 445.205 148.476C450.996 143.859 458.184 141.346 465.591 141.348C472.997 141.349 480.184 143.866 485.973 148.486C489.809 151.547 492.906 155.432 495.035 159.853C497.165 164.275 498.271 169.119 498.273 174.026V174.026Z" fill="#D38884"/>
<path id="Path 16" opacity="0.1" d="M542.743 419.356C534.603 438.726 482.243 439.126 482.243 439.126V418.006L479.073 417.796C480.443 423.846 477.153 438.596 477.153 438.596C435.773 444.436 425.683 420.856 425.683 420.856L427.123 412.786L459.363 415.656C459.363 415.656 537.753 410.386 541.263 414.766C542.005 416.204 542.506 417.755 542.743 419.356V419.356Z" fill="black"/>
<path id="Path 17" d="M482.243 436.576V415.456L479.073 415.256C480.443 421.256 477.153 436.056 477.153 436.056C446.013 440.446 432.593 428.186 427.863 421.846C427.013 420.754 426.282 419.574 425.683 418.326L438.323 347.226L441.323 242.586L445.853 224.226L446.903 215.416V215.316H447.013L450.233 216.696L469.503 225.026L491.393 208.496L491.713 208.266L492.803 207.436L494.613 208.886L499.113 212.496L513.543 305.686C513.543 305.686 538.543 377.436 543.223 406.396C543.413 407.556 543.563 408.636 543.683 409.646C546.773 436.086 482.243 436.576 482.243 436.576Z" fill="#06C59A"/>
<path id="Path 21" opacity="0.1" d="M543.413 413.236C543.413 413.236 522.043 421.296 515.253 414.236C508.463 407.176 509.163 374.046 509.163 374.046C509.163 374.046 502.663 312.916 498.553 302.876C494.443 292.836 496.553 220.376 496.553 220.376C496.553 220.376 493.793 211.006 491.383 208.556C491.231 208.399 491.059 208.261 490.873 208.146L491.703 208.326L494.603 208.946L499.103 212.556L513.533 305.746C513.533 305.746 538.533 377.496 543.213 406.456L543.413 413.236Z" fill="black"/>
<path id="Path 22" opacity="0.1" d="M568.033 415.356H567.793C565.103 415.706 541.363 418.576 541.263 413.636C541.259 413.065 541.289 412.494 541.353 411.926L563.353 409.676L567.713 414.156C567.793 414.446 567.853 414.696 567.913 414.896L568.033 415.356Z" fill="black"/>
<path id="Path 23" d="M545.253 245.926L560.853 254.066C560.853 254.066 573.853 287.726 575.933 302.156C575.933 302.156 585.563 340.816 578.933 356.716C572.303 372.616 572.853 404.176 572.853 404.176C572.853 404.176 569.033 409.976 567.473 408.426C565.913 406.876 568.043 414.506 568.043 414.506C568.043 414.506 541.373 418.046 541.263 412.806C541.153 407.566 547.383 382.526 547.383 382.526C547.383 382.526 549.083 322.956 546.673 313.616C544.263 304.276 545.253 245.926 545.253 245.926Z" fill="#303D67"/>
<path id="Path 24" opacity="0.1" d="M498.703 309.376C498.703 309.376 489.923 330.876 487.093 332.296C484.263 333.716 487.663 339.366 487.663 339.366C487.663 339.366 503.653 317.016 498.703 309.376Z" fill="black"/>
<path id="Path 25" opacity="0.1" d="M493.463 233.956C493.563 233.546 482.993 244.326 480.163 245.956C477.333 247.586 490.493 245.856 493.463 233.956Z" fill="black"/>
<path id="Path 27" opacity="0.1" d="M493.323 459.926C493.323 459.926 507.053 468.756 528.413 470.926L493.323 459.926Z" fill="black"/>
<path id="Path 30" opacity="0.1" d="M537.183 574.856C537.183 574.856 549.803 572.026 552.613 581.076C552.613 581.046 551.763 578.216 537.183 574.856Z" fill="black"/>
<path id="Path 31" opacity="0.1" d="M528.693 626.616C528.693 626.616 543.983 623.496 547.233 627.746C550.483 631.996 528.693 626.616 528.693 626.616Z" fill="black"/>
<path id="Path 32" opacity="0.1" d="M485.443 633.856C485.443 633.996 469.883 636.976 470.443 638.956C471.003 640.936 487.043 640.656 487.613 637.536C487.715 637.152 487.74 636.751 487.686 636.357C487.631 635.964 487.5 635.585 487.298 635.242C487.096 634.9 486.828 634.601 486.509 634.363C486.191 634.125 485.829 633.953 485.443 633.856V633.856Z" fill="black"/>
<path id="Path 33" opacity="0.1" d="M523.603 647.276C523.603 647.276 549.173 644.156 547.603 649.536C546.033 654.916 523.603 647.276 523.603 647.276Z" fill="black"/>
<path id="Path 37" opacity="0.1" d="M485.973 148.486C485.487 148.957 484.943 149.364 484.353 149.696C480.353 152.026 479.253 155.616 477.353 159.756C475.583 163.546 473.633 167.556 470.063 169.706C465.453 172.486 459.383 171.466 454.593 173.886C452.467 174.993 450.72 176.712 449.58 178.82C448.439 180.929 447.956 183.33 448.193 185.716C448.497 187.557 448.952 189.37 449.553 191.136C450.642 194.961 451.135 198.931 451.013 202.906C451.023 203.022 451.023 203.14 451.013 203.256C446.915 201.208 443.293 198.322 440.382 194.784C437.472 191.246 435.337 187.136 434.118 182.72C432.899 178.304 432.621 173.681 433.304 169.151C433.987 164.621 435.615 160.285 438.082 156.424C440.549 152.564 443.8 149.265 447.624 146.743C451.448 144.22 455.76 142.529 460.279 141.781C464.799 141.032 469.426 141.242 473.859 142.398C478.292 143.553 482.433 145.627 486.013 148.486H485.973Z" fill="black"/>
<path id="Path 38" d="M485.123 138.646C481.533 131.106 473.723 126.326 465.693 123.996C459.563 122.226 452.903 121.646 446.823 123.596C443.353 124.696 440.203 126.596 436.953 128.226C430.893 131.286 424.233 133.706 419.673 138.736C418.603 139.906 417.673 141.406 417.943 142.956C418.173 144.106 419.073 144.956 419.653 146.016C420.963 148.316 420.653 151.206 419.743 153.706C418.833 156.206 417.543 158.526 416.923 161.096C416.303 163.666 416.543 166.676 418.443 168.506C419.353 169.232 420.309 169.9 421.303 170.506C422.343 171.404 423.254 172.44 424.013 173.586L429.413 180.966C431.95 184.236 434.211 187.712 436.173 191.356C437.513 194.036 438.553 196.896 440.353 199.286C442.153 201.676 444.953 203.596 447.933 203.336C448.164 203.342 448.393 203.293 448.601 203.194C448.809 203.095 448.992 202.949 449.133 202.766C449.244 202.532 449.295 202.275 449.283 202.016C449.415 198.056 448.932 194.099 447.853 190.286C447.251 188.52 446.796 186.707 446.493 184.866C446.263 182.481 446.749 180.082 447.889 177.975C449.029 175.868 450.771 174.148 452.893 173.036C457.693 170.616 463.763 171.636 468.363 168.866C471.943 166.706 473.893 162.696 475.653 158.866C477.583 154.726 478.653 151.136 482.653 148.806C486.653 146.476 487.113 142.616 485.123 138.646Z" fill="#585268"/>
<path id="Path 40" opacity="0.1" d="M538.133 688.856C538.133 688.856 539.243 680.316 543.693 680.236C548.143 680.156 548.363 679.776 551.763 681.086C555.163 682.396 558.353 684.426 557.333 684.726C556.313 685.026 551.483 679.846 546.523 682.496C543.427 684.19 540.6 686.333 538.133 688.856V688.856Z" fill="black"/>
<path id="Path 45" opacity="0.1" d="M490.743 229.536L473.293 223.076C473.293 223.076 495.513 198.736 498.293 212.236L490.743 229.536Z" fill="black"/>
<path id="Path 46" d="M490.743 228.686L473.293 222.226C473.293 222.226 495.513 197.886 498.293 211.386L490.743 228.686Z" fill="#E1E7EF"/>
<path id="Path 47" d="M490.743 228.686L473.293 222.226C473.293 222.226 495.513 197.886 498.293 211.386L490.743 228.686Z" fill="#06C59A"/>
<path id="Path 48" opacity="0.1" d="M490.173 207.976C490.425 207.936 490.682 207.993 490.893 208.136L490.173 207.976Z" fill="black"/>
<path id="Path 49" d="M491.853 206.286L538.153 216.286C538.153 216.286 550.893 219.116 560.093 251.096C569.293 283.076 547.493 322.256 547.493 322.256L542.683 318.166L545.093 411.556C545.093 411.556 523.723 419.616 516.933 412.556C510.143 405.496 510.853 372.336 510.853 372.336C510.853 372.336 504.343 311.216 500.233 301.166C496.123 291.116 498.233 218.676 498.233 218.676C498.233 218.676 494.453 205.726 491.853 206.286Z" fill="#303D67"/>
<path id="Path 50" opacity="0.1" d="M534.213 265.796C533.563 266.396 532.803 294.656 535.633 316.166C537.363 329.265 540.037 342.222 543.633 354.936L539.433 268.766C539.433 268.766 536.193 263.956 534.213 265.796Z" fill="black"/>
<path id="Path 51" opacity="0.1" d="M528.553 241.456C529.683 242.166 534.643 253.906 532.373 258.716C530.103 263.526 528.553 241.456 528.553 241.456Z" fill="black"/>
<path id="Path 52" opacity="0.1" d="M484.853 138.646C482.58 134.17 479.039 130.463 474.673 127.986C477.92 130.311 480.541 133.403 482.303 136.986C484.303 140.986 483.713 144.986 479.823 147.176C475.933 149.366 474.723 153.096 472.823 157.236C471.053 161.026 469.103 165.036 465.523 167.236C460.923 170.016 454.853 168.986 450.053 171.406C447.932 172.522 446.191 174.244 445.051 176.352C443.912 178.46 443.425 180.86 443.653 183.246C443.961 185.084 444.419 186.893 445.023 188.656C446.112 192.481 446.604 196.451 446.483 200.426C446.492 200.685 446.437 200.943 446.323 201.176C446.185 201.36 446.005 201.507 445.798 201.606C445.59 201.706 445.362 201.754 445.133 201.746C443.933 201.838 442.73 201.614 441.643 201.096C442.43 201.876 443.368 202.488 444.4 202.892C445.432 203.296 446.535 203.484 447.643 203.446C447.823 203.472 448.007 203.456 448.18 203.4C448.353 203.343 448.511 203.247 448.641 203.119C448.771 202.991 448.869 202.835 448.928 202.663C448.988 202.49 449.006 202.307 448.983 202.126C449.112 198.151 448.623 194.18 447.533 190.356C446.923 188.592 446.465 186.778 446.163 184.936C445.933 182.551 446.419 180.152 447.559 178.045C448.699 175.938 450.441 174.218 452.563 173.106C457.363 170.686 463.433 171.706 468.033 168.936C471.613 166.776 473.563 162.766 475.323 158.936C477.253 154.796 478.323 151.206 482.323 148.876C486.323 146.546 486.853 142.616 484.853 138.646Z" fill="black"/>
<path id="Path 6" d="M436.303 445.216C432.033 463.986 415.053 435.606 411.183 428.796C410.683 427.906 410.403 427.386 410.403 427.386L412.243 418.756L421.973 414.756C423.514 415.561 424.974 416.512 426.333 417.596C431.663 421.786 439.593 430.676 436.303 445.216Z" fill="#D38884"/>
<path id="Ellipse 6" d="M471.843 228.946C472.87 228.946 473.703 228.113 473.703 227.086C473.703 226.059 472.87 225.226 471.843 225.226C470.816 225.226 469.983 226.059 469.983 227.086C469.983 228.113 470.816 228.946 471.843 228.946Z" fill="#67647E"/>
<path id="Ellipse 7" d="M472.703 245.926C473.73 245.926 474.563 245.093 474.563 244.066C474.563 243.039 473.73 242.206 472.703 242.206C471.676 242.206 470.843 243.039 470.843 244.066C470.843 245.093 471.676 245.926 472.703 245.926Z" fill="#67647E"/>
<path id="Ellipse 8" d="M474.563 273.416C475.59 273.416 476.423 272.583 476.423 271.556C476.423 270.529 475.59 269.696 474.563 269.696C473.536 269.696 472.703 270.529 472.703 271.556C472.703 272.583 473.536 273.416 474.563 273.416Z" fill="#67647E"/>
<path id="Ellipse 9" d="M477.633 303.026C478.66 303.026 479.493 302.193 479.493 301.166C479.493 300.139 478.66 299.306 477.633 299.306C476.606 299.306 475.773 300.139 475.773 301.166C475.773 302.193 476.606 303.026 477.633 303.026Z" fill="#67647E"/>
<path id="Ellipse 10" d="M479.493 330.826C480.52 330.826 481.353 329.993 481.353 328.966C481.353 327.939 480.52 327.106 479.493 327.106C478.466 327.106 477.633 327.939 477.633 328.966C477.633 329.993 478.466 330.826 479.493 330.826Z" fill="#67647E"/>
<path id="Ellipse 11" d="M481.353 360.436C482.38 360.436 483.213 359.603 483.213 358.576C483.213 357.549 482.38 356.716 481.353 356.716C480.326 356.716 479.493 357.549 479.493 358.576C479.493 359.603 480.326 360.436 481.353 360.436Z" fill="#67647E"/>
<path id="Ellipse 12" d="M480.613 389.726C481.64 389.726 482.473 388.893 482.473 387.866C482.473 386.839 481.64 386.006 480.613 386.006C479.586 386.006 478.753 386.839 478.753 387.866C478.753 388.893 479.586 389.726 480.613 389.726Z" fill="#67647E"/>
<path id="Path 18" opacity="0.1" d="M448.143 357.566C448.143 357.566 446.063 384.796 442.243 392.716C438.423 400.636 436.723 422.856 436.723 422.856L427.853 421.856C427.003 420.764 426.272 419.584 425.673 418.336L438.313 347.236L441.313 242.596L445.853 224.226L446.903 215.416L447.023 215.366C447.518 215.132 448.061 215.015 448.609 215.023C449.157 215.032 449.695 215.166 450.183 215.416L450.603 215.636C450.476 215.996 450.356 216.366 450.243 216.746C446.783 227.576 445.493 247.536 445.493 247.536C445.493 247.536 450.493 284.046 451.013 301.026C451.533 318.006 448.143 357.566 448.143 357.566Z" fill="black"/>
<path id="Path 19" opacity="0.1" d="M426.333 417.626C426.236 417.854 426.122 418.074 425.993 418.286C422.553 424.096 413.833 427.786 411.183 428.796C410.683 427.906 410.403 427.386 410.403 427.386L412.243 418.756L421.973 414.756C423.515 415.571 424.975 416.532 426.333 417.626Z" fill="black"/>
<path id="Path 20" d="M402.763 278.666L394.693 283.476L387.343 316.166C387.343 316.166 378.143 343.896 385.213 363.706C392.283 383.516 396.393 394.856 396.393 394.856C396.393 394.856 399.223 417.356 403.473 419.196C407.723 421.036 409.553 422.026 409.553 422.026L410.403 427.406C410.403 427.406 421.923 423.496 425.993 416.606C430.063 409.716 422.993 392.606 422.993 392.606C422.993 392.606 416.913 378.026 418.473 371.236C420.033 364.446 415.353 346.616 415.353 346.236C415.353 345.856 414.933 336.326 418.353 329.036C421.773 321.746 419.493 318.636 419.493 318.636L417.363 297.836L402.763 278.666Z" fill="#303D67"/>
<path id="Path 26" opacity="0.1" d="M464.033 307.676C464.033 307.676 447.903 318.106 450.033 322.236C452.163 326.366 464.033 307.676 464.033 307.676Z" fill="black"/>
<path id="Path 28" opacity="0.1" d="M460.353 481.156C460.353 481.156 473.083 497.156 478.893 497.566C484.703 497.976 460.353 481.156 460.353 481.156Z" fill="black"/>
<path id="Path 29" opacity="0.1" d="M478.183 543.856C477.613 544.136 470.963 558.286 464.183 558.716C457.403 559.146 478.183 543.856 478.183 543.856Z" fill="black"/>
<path id="Path 34" opacity="0.1" d="M389.743 332.296C389.883 332.716 406.583 334.986 408.843 340.366C408.843 340.366 392.433 332.716 389.843 332.716" fill="black"/>
<path id="Path 35" opacity="0.1" d="M413.233 376.016C413.233 376.016 399.363 380.406 400.353 387.016C401.343 393.626 398.943 383.956 413.233 376.016Z" fill="black"/>
<path id="Path 36" opacity="0.1" d="M406.773 409.696C406.773 409.696 411.823 402.766 416.633 404.036C421.443 405.306 406.773 409.696 406.773 409.696Z" fill="black"/>
<path id="Path 39" opacity="0.1" d="M470.483 672.916C470.483 672.916 475.483 679.286 474.183 682.916C472.883 686.546 470.483 672.916 470.483 672.916Z" fill="black"/>
<path id="Path 41" opacity="0.1" d="M455.563 235.736L469.563 225.926C469.563 225.926 449.083 213.826 446.643 215.526C444.203 217.226 442.523 232.526 442.523 232.526L455.563 235.736Z" fill="black"/>
<path id="Path 42" d="M455.503 235.106L469.503 225.106C469.503 225.106 449.023 213.006 446.583 214.706C444.143 216.406 442.463 232.546 442.463 232.546L455.503 235.106Z" fill="#E1E7EF"/>
<path id="Path 43" d="M455.503 235.106L469.503 225.106C469.503 225.106 449.023 213.006 446.583 214.706C444.143 216.406 442.463 232.546 442.463 232.546L455.503 235.106Z" fill="#06C59A"/>
<path id="Path 44" d="M448.903 214.786L448.483 214.576C447.858 214.257 447.155 214.127 446.457 214.199C445.76 214.272 445.098 214.545 444.553 214.986L402.553 249.056C402.553 249.056 393.423 261.686 394.693 283.476L419.463 318.566C419.463 318.566 422.293 306.686 425.683 308.946C425.683 308.946 430.493 369.796 425.683 378.566C420.873 387.336 418.753 420.166 418.753 420.166L435.023 422.006C435.023 422.006 436.723 399.786 440.543 391.866C444.363 383.946 446.443 356.716 446.443 356.716C446.443 356.716 449.883 317.156 449.313 300.176C448.743 283.196 443.793 246.686 443.793 246.686C443.793 246.686 445.183 225.286 448.903 214.786Z" fill="#303D67"/>
</g>
<g id="person3">
<path id="Path 53" d="M769.723 264.226C755.943 263.956 743.783 254.226 736.893 242.336C735.086 239.507 733.95 236.302 733.573 232.966C733.621 232.208 733.748 231.457 733.953 230.726C734.374 229.61 734.708 228.463 734.953 227.296C735.008 226.831 735.008 226.361 734.953 225.896C734.953 225.896 734.953 225.896 734.953 225.816C735.283 223.286 733.793 220.816 731.953 219.086C730.113 217.356 727.803 216.086 725.883 214.366C719.963 209.166 718.163 200.826 718.053 192.886V192.466C718.123 189.066 718.393 185.656 718.363 182.256C718.41 180.326 718.326 178.395 718.113 176.476C717.543 171.666 715.713 166.766 711.933 163.696C702.073 155.696 685.493 164.026 675.283 156.466C672.803 154.616 670.793 151.886 667.783 151.166C665.513 150.616 663.153 151.356 660.933 152.096C653.413 154.576 645.023 157.836 642.083 165.096C640.403 169.266 640.873 174.026 639.333 178.246C638.333 181.076 636.423 183.506 635.033 186.186C633.892 188.204 633.338 190.5 633.433 192.816C633.31 194.015 633.478 195.226 633.923 196.346C634.445 197.696 635.286 198.9 636.373 199.856C635.981 200.691 635.491 201.477 634.913 202.196C632.993 204.546 630.043 206.196 628.043 208.536C624.343 212.826 624.483 218.656 626.303 223.696C628.123 228.736 631.413 233.326 633.683 238.236C634.683 240.366 635.443 242.746 634.433 244.866C633.723 246.336 632.253 247.456 631.113 248.726C629.445 250.596 628.397 252.936 628.113 255.426C605.603 260.566 605.583 278.656 605.583 278.656L593.423 309.236C593.423 309.236 591.473 314.386 589.183 321.186L574.793 318.606L584.793 335.346C582.903 342.166 581.563 348.486 582.003 351.666C582.003 351.666 577.533 372.666 585.483 376.336L603.023 384.226C603.783 384.692 604.6 385.058 605.453 385.316L606.163 385.636C606.419 385.76 606.699 385.824 606.983 385.824C607.267 385.824 607.547 385.76 607.803 385.636H608.043C608.383 385.659 608.724 385.608 609.043 385.486C609.434 385.276 609.743 384.941 609.923 384.536C609.917 384.503 609.917 384.469 609.923 384.436L615.173 382.916L619.623 388.186C621.623 389.596 623.623 390.816 625.513 391.916L618.623 460.336C618.623 460.336 617.513 551.336 614.153 572.076C612.913 579.756 612.903 584.996 613.373 588.556L613.243 588.776C614.073 594.626 616.243 595.776 616.243 595.776V595.696C616.283 595.728 616.327 595.755 616.373 595.776C617.385 593.119 618.588 590.539 619.973 588.056V589.556C619.903 597.276 619.663 608.086 618.863 615.116C617.503 627.116 622.343 666.666 622.343 666.666L624.013 702.666C624.285 708.778 622.866 714.847 619.913 720.206C615.913 727.396 610.803 737.516 610.433 742.006C610.413 742.249 610.413 742.493 610.433 742.736V742.736L601.853 753.056C601.853 753.056 598.503 758.236 606.073 760.326C610.143 761.456 617.163 760.326 622.803 758.996C625.265 758.429 627.462 757.045 629.036 755.069C630.611 753.093 631.47 750.642 631.473 748.116C632.899 743.157 635.306 738.536 638.553 734.526L639.963 742.816L649.403 745.156L650.613 722.436C651.1 721.161 651.322 719.8 651.263 718.436V718.436C653.123 702.276 646.883 703.726 646.883 703.726C647.05 703.868 647.157 704.068 647.183 704.286L646.883 703.736C643.053 696.176 644.883 683.736 644.883 683.736C644.883 683.736 649.883 647.736 651.593 638.226C652.823 631.506 652.313 609.506 651.903 597.226C651.912 596.729 651.895 596.232 651.853 595.736C666.493 595.546 684.433 595.056 697.023 593.836V595.316L694.703 680.366C694.544 685.789 693.441 691.142 691.443 696.186C691.424 696.289 691.387 696.387 691.333 696.476C688.573 703.6 687.015 711.132 686.723 718.766L685.643 745.766V746.516C683.763 747.236 680.793 749.326 680.713 755.386C680.583 764.266 696.233 761.306 696.233 761.306C711.873 761.306 712.003 745.026 712.003 745.026C712.003 745.026 712.493 730.096 713.243 720.106C713.993 710.116 710.883 712.316 710.883 712.316L710.643 740.736V716.046L710.883 712.436V712.336V711.566L712.853 682.256C712.853 682.256 727.263 633.416 729.493 624.046C731.083 617.386 730.423 597.326 729.903 586.236C729.917 585.745 729.891 585.253 729.823 584.766C734.293 584.366 738.243 584.326 739.823 584.326H740.553C740.553 584.326 739.813 505.886 737.943 476.326C736.073 446.766 733.103 419.716 725.653 411.576C721.153 406.656 714.883 391.466 710.653 380.216C719.545 384.061 728.775 387.074 738.223 389.216C761.813 394.156 758.583 373.676 758.583 373.676L756.193 334.946H756.353C756.265 324.801 755.396 314.678 753.753 304.666C752.503 296.986 750.593 289.046 747.673 282.666C750.233 281.666 752.763 280.596 755.243 279.496C761.653 276.666 768.873 272.656 769.793 265.746H769.483C769.607 265.247 769.687 264.739 769.723 264.226V264.226ZM623.493 320.226C623.543 324.226 623.393 331.166 623.153 338.836L615.663 328.836L623.173 316.656L623.493 320.226ZM726.973 355.666L714.493 351.666C716.706 348.213 719.291 345.014 722.203 342.126L723.283 341.126L722.893 341.206L723.493 340.656L723.853 340.576L723.283 341.126L723.963 340.986C724.714 344.121 726.167 347.045 728.213 349.536C732.693 354.426 726.983 355.666 726.983 355.666H726.973Z" fill="url(#paint1_linear)"/>
<path id="Path 54" d="M651.163 715.656L649.703 743.336L640.393 741.006L638.433 729.496L651.163 715.656Z" fill="#A27772"/>
<path id="Path 55" opacity="0.1" d="M651.163 715.656L649.703 743.336L640.393 741.006L638.433 729.496L651.163 715.656Z" fill="black"/>
<path id="Path 56" d="M685.333 747.006L699.533 749.946L710.063 740.646V714.436L710.303 710.856V710.746V709.986L712.263 680.856C712.263 680.856 726.473 632.366 728.683 623.056C730.243 616.456 729.593 596.536 729.073 585.526C728.863 581.016 728.683 577.996 728.683 577.996L697.333 570.406L696.673 594.506L694.383 678.946C694.225 684.328 693.139 689.643 691.173 694.656L691.063 694.946C688.337 702.018 686.799 709.492 686.513 717.066L685.453 743.916V744.656L685.333 747.006Z" fill="#FBBEBE"/>
<path id="Path 58" opacity="0.1" d="M685.333 747.006L699.533 749.946L710.063 740.646V738.416C710.029 738.91 709.873 739.387 709.609 739.806C709.346 740.224 708.983 740.572 708.553 740.816L708.403 740.906C703.512 743.492 697.97 744.587 692.463 744.056L686.923 743.586C686.418 743.634 685.923 743.755 685.453 743.946V744.686L685.333 747.006Z" fill="black"/>
<path id="Path 59" d="M708.403 741.636L708.553 741.556C709.015 741.296 709.4 740.919 709.669 740.462C709.937 740.006 710.08 739.486 710.083 738.956L710.313 710.746C710.313 710.746 713.373 708.556 712.633 718.476C711.893 728.396 711.413 743.216 711.413 743.216C711.413 743.216 711.293 759.376 695.863 759.376C695.863 759.376 680.433 762.316 680.553 753.496C680.673 744.676 686.923 744.316 686.923 744.316L692.463 744.796C697.971 745.328 703.514 744.229 708.403 741.636V741.636Z" fill="#B07473"/>
<path id="Path 60" d="M611.373 741.006C611.733 747.376 630.473 743.696 630.473 743.696L643.083 719.216C643.083 719.216 653.613 711.126 648.343 704.026C648.061 703.639 647.804 703.235 647.573 702.816L647.523 702.756C647.413 702.576 647.313 702.386 647.213 702.186C643.433 694.686 645.293 682.386 645.293 682.386C645.293 682.386 650.183 646.626 651.903 637.196C653.113 630.536 652.613 608.686 652.213 596.466C652.053 591.386 651.903 587.976 651.903 587.976L620.793 579.646V588.926C620.723 596.596 620.483 607.326 619.693 614.306C618.353 626.176 623.123 665.486 623.123 665.486L624.773 701.256C625.059 707.316 623.675 713.338 620.773 718.666C616.873 725.806 611.773 735.866 611.423 740.316C611.388 740.544 611.371 740.775 611.373 741.006V741.006Z" fill="#FBBEBE"/>
<path id="Path 61" opacity="0.1" d="M611.373 741.006C611.733 747.376 630.473 743.696 630.473 743.696L643.083 719.216C643.083 719.216 653.613 711.126 648.343 704.026C648.061 703.639 647.804 703.235 647.573 702.816C647.403 706.526 643.333 715.816 643.333 715.816C643.333 715.816 632.923 736.646 629.613 741.416C626.303 746.186 611.923 740.526 611.383 740.326C611.362 740.552 611.359 740.779 611.373 741.006V741.006Z" fill="black"/>
<path id="Path 62" d="M647.213 702.156C647.213 702.156 653.373 700.726 651.533 716.766C651.603 718.588 651.189 720.397 650.334 722.007C649.478 723.618 648.212 724.973 646.663 725.936C642.253 728.706 635.453 734.666 632.013 746.256C632.016 748.757 631.172 751.185 629.62 753.146C628.068 755.107 625.898 756.485 623.463 757.056C617.903 758.356 610.973 759.496 606.963 758.376C599.493 756.296 602.803 751.156 602.803 751.156L611.373 740.986C611.373 740.986 626.313 746.866 629.613 742.086C632.913 737.306 643.333 716.496 643.333 716.496C643.333 716.496 649.043 703.506 647.213 702.156Z" fill="#B07473"/>
<path id="Path 63" opacity="0.1" d="M697.333 573.376L696.673 597.476C705.023 596.666 711.003 595.536 712.023 593.946C714.233 590.526 722.253 589.086 729.073 588.496C728.863 583.986 728.683 580.966 728.683 580.966L697.333 573.376Z" fill="black"/>
<path id="Path 64" opacity="0.1" d="M620.793 591.856C621.591 590.223 622.767 588.804 624.223 587.716C627.523 585.886 627.163 599.476 627.163 599.476C627.163 599.476 638.163 599.576 652.213 599.396C652.053 594.316 651.903 590.896 651.903 590.896L620.793 582.576C620.793 582.576 620.853 586.436 620.793 591.856Z" fill="black"/>
<path id="Path 65" d="M617.243 595.076C617.243 595.076 620.923 585.076 624.243 583.296C627.563 581.516 627.183 595.046 627.183 595.046C627.183 595.046 708.003 595.786 712.043 589.536C716.083 583.286 739.593 583.656 739.593 583.656C739.593 583.656 738.863 505.776 737.023 476.396C735.183 447.016 732.253 420.186 724.903 412.106C720.153 406.876 713.393 389.956 709.213 378.676C706.943 372.516 705.433 368.026 705.433 368.026L628.293 372.426L627.663 378.676L619.473 460.596C619.473 460.596 618.373 550.966 615.063 571.536C611.753 592.106 617.243 595.076 617.243 595.076Z" fill="#444053"/>
<g id="Group 1" opacity="0.1">
<path id="Path 66" opacity="0.1" d="M705.763 589.536C709.763 583.296 733.313 583.656 733.313 583.656C733.313 583.656 732.583 505.776 730.743 476.396C728.903 447.016 725.973 420.186 718.623 412.106C713.853 406.856 707.113 389.956 702.933 378.676C701.023 373.496 699.653 369.506 699.273 368.366L705.273 368.026C705.273 368.026 706.783 372.516 709.063 378.676C713.243 389.956 719.993 406.876 724.743 412.106C732.093 420.186 735.033 447.006 736.863 476.396C738.693 505.786 739.443 583.656 739.443 583.656C739.443 583.656 715.933 583.296 711.883 589.536C708.433 594.866 648.963 595.116 631.703 595.066C653.853 595.016 702.643 594.356 705.763 589.536Z" fill="black"/>
<path id="Path 67" opacity="0.1" d="M617.963 583.296C619.453 582.466 620.193 584.766 620.563 587.556C619.228 589.976 618.068 592.489 617.093 595.076C617.093 595.076 614.963 593.926 614.093 588.076C615.313 585.986 616.663 584.016 617.963 583.296Z" fill="black"/>
</g>
<path id="Path 68" d="M641.083 179.048C635.743 185.967 641.143 195.803 635.413 202.532C633.523 204.756 630.613 206.332 628.643 208.519C624.993 212.568 625.133 218.07 626.923 222.819C628.713 227.568 634.203 236.542 634.203 236.542C634.203 236.542 635.943 240.8 634.943 242.795C634.243 244.183 632.793 245.237 631.663 246.435C627.983 250.341 627.883 255.768 629.863 260.367C631.843 264.966 635.623 268.92 639.353 272.817C640.823 274.347 642.683 276.039 645.133 275.991C646.414 275.9 647.657 275.513 648.763 274.86C666.388 266.304 673.808 246.083 665.603 228.967C662.503 221.906 657.333 215.139 657.283 207.679C657.283 201.758 660.483 196.103 661.053 190.211C661.743 183.045 657.283 171.669 648.183 168.543C648.783 173.146 643.793 175.493 641.083 179.048Z" fill="#E96D71"/>
<path id="Path 70" opacity="0.1" d="M700.303 444.406C689.613 444.966 679.553 449.566 670.193 454.766C660.833 459.966 651.773 465.856 641.703 469.546" fill="black"/>
<path id="Path 71" opacity="0.1" d="M693.663 469.596C683.088 470.604 673.234 475.399 665.913 483.096C663.313 485.846 661.073 488.926 658.363 491.566C654.215 495.615 649.088 498.519 643.483 499.996" fill="black"/>
<path id="Path 72" opacity="0.1" d="M695.853 488.766C687.325 491.133 679.606 495.788 673.533 502.226C671.893 503.996 670.403 505.886 668.763 507.656C659.913 517.156 647.413 522.196 635.343 526.966" fill="black"/>
<path id="Path 73" d="M694.943 222.916C695.179 231.458 695.913 239.979 697.143 248.436C698.143 254.436 699.543 259.836 701.553 262.226C707.433 269.226 672.903 278.576 672.903 278.576L652.513 262.776C652.513 262.776 668.673 247.896 661.143 233.386C653.613 218.876 694.943 222.916 694.943 222.916Z" fill="#FBBEBE"/>
<path id="Path 74" opacity="0.1" d="M627.643 378.676H709.193C706.923 372.516 705.413 368.026 705.413 368.026L628.273 372.426L627.643 378.676Z" fill="black"/>
<path id="Path 75" d="M622.393 377.206H709.583C707.133 368.436 709.583 360.326 713.073 354.086C715.519 349.713 718.596 345.724 722.203 342.246L722.803 341.696L753.243 334.956L754.883 334.596C754.883 334.596 755.133 279.246 735.533 271.646C715.933 264.046 704.183 253.776 704.183 253.776L677.253 262.096L657.413 252.096C651.043 258.946 634.143 256.256 634.143 256.256C606.473 259.436 606.473 280.256 606.473 280.256C606.473 280.256 622.633 317.966 623.863 317.966C625.093 317.966 622.393 377.206 622.393 377.206Z" fill="#4125C7"/>
<path id="Path 76" opacity="0.1" d="M652.493 342.016C652.493 342.016 634.713 338.076 628.663 331.186Z" fill="black"/>
<path id="Path 77" opacity="0.1" d="M742.143 321.366L721.523 338.266C721.672 339.611 721.899 340.947 722.203 342.266L722.803 341.716L753.243 334.976L742.143 321.366Z" fill="black"/>
<path id="Path 78" opacity="0.1" d="M686.313 371.326C686.313 371.326 690.823 373.866 697.733 377.206H709.583C707.133 368.436 709.583 360.326 713.073 354.086L692.183 347.326C699.293 353.936 686.313 371.326 686.313 371.326Z" fill="black"/>
<path id="Path 79" d="M618.713 273.616L606.473 280.226L594.473 310.596C594.473 310.596 581.983 343.896 583.203 352.716C583.203 352.716 578.803 373.536 586.633 377.206L607.033 386.446C607.393 386.605 607.794 386.648 608.181 386.569C608.567 386.49 608.919 386.293 609.188 386.005C609.457 385.718 609.63 385.353 609.683 384.963C609.736 384.572 609.666 384.175 609.483 383.826C606.573 378.316 603.373 369.696 608.483 364.956L602.603 352.716L623.853 317.936L630.953 305.936L618.713 273.616Z" fill="#4125C7"/>
<path id="Path 80" opacity="0.1" d="M645.943 335.066C647.003 339.386 650.583 346.066 662.433 348.556L675.433 359.206L689.263 365.476L694.903 368.026L697.293 350.756L691.863 347.756L685.533 344.296C685.533 344.296 671.253 318.426 648.643 329.296C647.592 329.794 646.748 330.642 646.255 331.695C645.762 332.748 645.652 333.94 645.943 335.066Z" fill="black"/>
<path id="Path 81" d="M646.683 333.596C647.743 337.926 651.313 344.596 663.163 347.086L676.163 357.736L690.003 364.006L695.633 366.556L698.023 349.286L692.593 346.286L686.313 342.856C686.313 342.856 672.023 316.986 649.413 327.906C648.373 328.396 647.534 329.229 647.037 330.266C646.54 331.302 646.415 332.478 646.683 333.596V333.596Z" fill="#CC818C"/>
<path id="Ellipse 13" opacity="0.1" d="M672.163 245.316C689.61 245.316 703.753 231.173 703.753 213.726C703.753 196.279 689.61 182.136 672.163 182.136C654.716 182.136 640.573 196.279 640.573 213.726C640.573 231.173 654.716 245.316 672.163 245.316Z" fill="black"/>
<path id="Path 242" d="M672.163 181.406C678.411 181.406 684.518 183.259 689.713 186.73C694.908 190.201 698.957 195.135 701.348 200.907C703.739 206.679 704.365 213.031 703.146 219.159C701.927 225.287 698.918 230.916 694.5 235.334C690.082 239.751 684.454 242.76 678.326 243.979C672.198 245.198 665.846 244.572 660.074 242.181C654.302 239.79 649.368 235.741 645.897 230.546C642.426 225.352 640.573 219.244 640.573 212.996C640.573 204.618 643.901 196.583 649.825 190.659C655.75 184.734 663.785 181.406 672.163 181.406V181.406Z" fill="#FBBEBE"/>
<path id="Path 82" opacity="0.1" d="M691.733 280.496L682.233 262.036C682.233 262.036 696.133 256.416 697.143 249.906C698.153 243.396 710.463 257.536 707.803 262.226C705.143 266.916 691.733 280.496 691.733 280.496Z" fill="black"/>
<path id="Path 83" d="M691.733 279.026L682.233 260.566C682.233 260.566 696.133 254.946 697.143 248.436C698.153 241.926 710.463 256.076 707.803 260.756C705.143 265.436 691.733 279.026 691.733 279.026Z" fill="#4125C7"/>
<path id="Path 84" d="M613.983 326.716L666.473 397.286C666.473 397.286 647.123 407.816 620.473 388.966L608.963 375.246L576.103 319.856L613.983 326.716Z" fill="#F6F8FB"/>
<path id="Path 85" d="M603.653 365.086L608.433 364.956C608.433 364.956 637.633 336.616 644.803 350.956C651.973 365.296 626.613 378.696 626.613 378.696L618.903 382.856L608.853 385.856L602.423 377.226L603.653 365.086Z" fill="#CC818C"/>
<path id="Path 86" opacity="0.1" d="M610.703 380.396C611.143 382.026 611.563 383.826 610.823 385.336C610.646 385.74 610.34 386.074 609.953 386.286C609.635 386.409 609.293 386.456 608.953 386.426C606.423 386.211 604.069 385.046 602.363 383.166C600.687 381.292 599.253 379.216 598.093 376.986C596.793 374.716 595.443 372.206 595.903 369.626C596.423 366.816 598.903 364.866 601.333 363.286C606.173 360.086 606.333 363.816 607.393 367.936C608.453 372.056 609.593 376.236 610.703 380.396Z" fill="black"/>
<path id="Path 87" d="M609.973 380.396C610.403 382.026 610.833 383.826 610.093 385.336C609.916 385.74 609.61 386.074 609.223 386.286C608.905 386.408 608.563 386.456 608.223 386.426C605.692 386.216 603.336 385.05 601.633 383.166C599.951 381.295 598.513 379.219 597.353 376.986C596.053 374.716 594.703 372.206 595.173 369.626C595.683 366.816 598.173 364.866 600.593 363.286C605.443 360.086 605.593 363.816 606.663 367.936C607.733 372.056 608.853 376.236 609.973 380.396Z" fill="#6C63FF"/>
<path id="Path 88" opacity="0.1" d="M623.863 317.936L626.303 313.806L624.173 321.476L623.863 317.936Z" fill="black"/>
<path id="Path 89" opacity="0.1" d="M690.043 364.006L695.673 366.556L698.063 349.286L692.633 346.286C696.383 350.586 693.103 358.536 690.043 364.006Z" fill="black"/>
<path id="Path 90" opacity="0.1" d="M712.643 343.956C712.643 343.956 694.463 345.066 686.743 340.106Z" fill="black"/>
<g id="Group 2" opacity="0.1">
<path id="Path 91" opacity="0.1" d="M710.383 355.556C712.83 351.18 715.906 347.188 719.513 343.706C720.378 343.163 721.277 342.676 722.203 342.246L750.543 336.426L752.183 336.066C752.183 336.066 752.433 280.716 732.843 273.116C721.854 268.937 711.553 263.136 702.283 255.906L704.433 255.246C704.433 255.246 716.183 265.526 735.783 273.116C755.383 280.706 755.123 336.066 755.123 336.066H752.183L723.183 341.616C723.183 341.616 721.933 342.826 721.553 343.176C717.916 346.819 714.797 350.944 712.283 355.436C708.445 362.561 707.572 370.911 709.853 378.676H706.853C704.433 369.906 706.933 361.796 710.383 355.556Z" fill="black"/>
<path id="Path 92" opacity="0.1" d="M632.983 257.856C633.453 257.786 633.903 257.716 634.393 257.666C636.381 257.948 638.385 258.112 640.393 258.156C637.919 258.224 635.443 258.124 632.983 257.856V257.856Z" fill="black"/>
<path id="Path 93" opacity="0.1" d="M674.553 263.566L656.613 254.486C656.969 254.194 657.303 253.876 657.613 253.536L676.333 263.006L674.553 263.566Z" fill="black"/>
</g>
<path id="Path 94" d="M742.853 319.856L754.853 334.556L757.303 374.476C757.303 374.476 760.483 394.796 737.223 389.896C713.963 384.996 687.043 369.856 687.043 369.856C687.043 369.856 700.043 352.466 692.923 345.856L726.233 356.636C726.233 356.636 731.863 355.406 727.453 350.516C723.043 345.626 722.263 336.796 722.263 336.796L742.853 319.856Z" fill="#4125C7"/>
<path id="Path 95" opacity="0.1" d="M748.273 362.026L754.883 369.616C753.183 369.094 751.662 368.106 750.494 366.765C749.326 365.423 748.557 363.782 748.273 362.026V362.026Z" fill="black"/>
<path id="Path 96" opacity="0.1" d="M737.003 360.796L747.293 374.016L742.153 375.246L737.003 360.796Z" fill="black"/>
<path id="Path 97" opacity="0.1" d="M634.433 198.496C633.303 195.726 634.173 192.496 635.533 189.886C636.893 187.276 638.763 184.806 639.783 181.996C641.293 177.816 640.833 173.086 642.483 168.996C645.393 161.746 653.663 158.506 661.073 155.996C663.263 155.266 665.593 154.536 667.833 155.076C670.833 155.786 672.783 158.506 675.233 160.336C685.293 167.836 701.653 159.576 711.383 167.516C715.103 170.516 716.913 175.426 717.473 180.196C718.033 184.966 717.473 189.806 717.413 194.616C717.253 203.036 718.833 212.246 725.133 217.826C727.033 219.506 729.273 220.766 731.133 222.506C732.993 224.246 734.453 226.676 734.133 229.196C733.887 230.353 733.553 231.49 733.133 232.596C731.883 236.986 733.753 241.596 736.033 245.596C742.833 257.366 754.823 267.066 768.413 267.336C767.503 274.196 760.413 278.176 754.063 280.986C746.063 284.576 737.543 288.096 728.733 287.646C719.923 287.196 710.733 281.556 709.193 272.876C708.663 269.876 708.733 266.266 706.193 264.706C704.633 263.756 702.613 263.996 700.933 263.286C698.503 262.286 697.303 259.556 696.503 257.046C694.864 251.867 693.985 246.478 693.893 241.046C693.783 234.606 694.633 227.576 690.983 222.276C687.603 217.366 681.603 214.876 677.703 210.366C674.103 206.186 670.193 201.146 664.293 200.366C656.133 199.216 639.253 210.306 634.433 198.496Z" fill="black"/>
<path id="Path 98" d="M634.433 197.026C633.303 194.256 634.173 191.026 635.533 188.416C636.893 185.806 638.763 183.336 639.783 180.526C641.293 176.346 640.833 171.616 642.483 167.526C645.393 160.266 653.663 157.026 661.073 154.526C663.263 153.796 665.593 153.066 667.833 153.606C670.833 154.316 672.783 157.036 675.233 158.866C685.293 166.366 701.653 158.106 711.383 166.046C715.103 169.046 716.913 173.956 717.473 178.736C718.033 183.516 717.473 188.336 717.413 193.146C717.253 201.566 718.833 210.776 725.133 216.356C727.033 218.036 729.273 219.296 731.133 221.036C732.993 222.776 734.453 225.206 734.133 227.726C733.887 228.883 733.553 230.02 733.133 231.126C731.883 235.516 733.753 240.126 736.033 244.126C742.853 255.856 754.793 265.586 768.383 265.856C767.473 272.716 760.383 276.696 754.033 279.516C746.033 283.096 737.513 286.616 728.703 286.166C719.893 285.716 710.703 280.076 709.163 271.396C708.633 268.396 708.703 264.786 706.163 263.226C704.603 262.276 702.583 262.516 700.903 261.806C698.473 260.806 697.273 258.076 696.473 255.566C694.833 250.387 693.954 244.998 693.863 239.566C693.753 233.126 694.603 226.096 690.953 220.796C687.573 215.886 681.573 213.396 677.673 208.886C674.073 204.706 670.163 199.666 664.263 198.886C656.133 197.746 639.253 208.856 634.433 197.026Z" fill="#E96D71"/>
<path id="Path 99" opacity="0.1" d="M656.853 278.206L674.963 263.506C674.963 263.506 662.563 256.786 661.083 251.056C659.603 245.326 649.683 253.776 650.693 258.916C651.703 264.056 656.853 278.206 656.853 278.206Z" fill="black"/>
<path id="Path 100" d="M657.563 275.996L675.673 261.306C675.673 261.306 663.273 254.586 661.853 248.856C660.433 243.126 650.453 251.576 651.463 256.716C652.473 261.856 657.563 275.996 657.563 275.996Z" fill="#4125C7"/>
<path id="Ellipse 15" opacity="0.1" d="M676.383 275.046C677.178 275.046 677.823 274.401 677.823 273.606C677.823 272.811 677.178 272.166 676.383 272.166C675.588 272.166 674.943 272.811 674.943 273.606C674.943 274.401 675.588 275.046 676.383 275.046Z" fill="black"/>
<path id="Ellipse 16" opacity="0.1" d="M676.383 283.046C677.178 283.046 677.823 282.401 677.823 281.606C677.823 280.811 677.178 280.166 676.383 280.166C675.588 280.166 674.943 280.811 674.943 281.606C674.943 282.401 675.588 283.046 676.383 283.046Z" fill="black"/>
<path id="Ellipse 17" opacity="0.1" d="M676.383 291.036C677.178 291.036 677.823 290.391 677.823 289.596C677.823 288.801 677.178 288.156 676.383 288.156C675.588 288.156 674.943 288.801 674.943 289.596C674.943 290.391 675.588 291.036 676.383 291.036Z" fill="black"/>
<g id="Group 3" opacity="0.1">
<path id="Path 101" opacity="0.1" d="M641.743 176.606C643.173 172.676 642.863 168.266 644.203 164.306C643.582 165.182 643.069 166.128 642.673 167.126C641.013 171.256 641.483 175.986 639.963 180.126L639.863 180.366C640.604 179.173 641.233 177.914 641.743 176.606V176.606Z" fill="black"/>
<path id="Path 102" opacity="0.1" d="M755.993 275.596C747.993 279.176 739.473 282.696 730.663 282.246C721.853 281.796 712.663 276.156 711.123 267.486C710.593 264.486 710.663 260.866 708.123 259.306C706.563 258.356 704.543 258.596 702.863 257.886C700.433 256.886 699.233 254.156 698.433 251.646C696.793 246.467 695.914 241.078 695.823 235.646C695.713 229.216 696.573 222.186 692.923 216.876C689.533 211.966 683.533 209.486 679.633 204.966C676.033 200.796 672.123 195.746 666.223 194.966C658.133 193.866 641.223 204.966 636.443 193.146C635.675 190.913 635.786 188.471 636.753 186.316C636.403 186.906 636.063 187.496 635.753 188.096C634.393 190.756 633.533 193.946 634.663 196.716C639.473 208.516 656.353 197.426 664.443 198.536C670.343 199.336 674.253 204.386 677.853 208.536C681.753 213.056 687.753 215.536 691.133 220.456C694.793 225.756 693.933 232.786 694.043 239.216C694.134 244.648 695.013 250.037 696.653 255.216C697.453 257.736 698.653 260.436 701.083 261.456C702.763 262.166 704.783 261.936 706.343 262.876C708.923 264.436 708.853 268.086 709.343 271.056C710.903 279.726 720.083 285.366 728.883 285.816C737.683 286.266 746.163 282.756 754.213 279.166C760.013 276.586 766.473 273.016 768.213 267.166C765.433 270.966 760.513 273.586 755.993 275.596Z" fill="black"/>
</g>
</g>
<g id="person4">
<path id="Path 103" d="M932.723 332.036C911.553 319.856 903.553 316.856 903.513 316.856L903.073 316.546C900.767 314.774 898.936 312.458 897.743 309.806C897.718 309.323 897.718 308.839 897.743 308.356C897.738 308.403 897.738 308.45 897.743 308.496C898.073 302.046 902.663 296.176 907.013 291.056L918.143 277.966C919.408 276.671 920.385 275.124 921.013 273.426C921.238 272.514 921.339 271.575 921.313 270.636C921.313 270.256 921.313 269.876 921.313 269.496C921.253 266.246 921.163 262.986 921.043 259.736C920.943 256.896 920.213 253.316 917.373 252.736C915.893 252.436 913.933 252.966 913.153 251.736C912.888 251.214 912.821 250.614 912.963 250.046C912.957 250.092 912.957 250.139 912.963 250.186V250.026C913.513 247.832 913.865 245.593 914.013 243.336C914.075 242.187 913.919 241.037 913.553 239.946C911.913 235.236 906.243 233.296 901.233 232.406C896.223 231.516 890.603 230.756 887.463 226.836C886.622 225.528 885.708 224.269 884.723 223.066C883.274 221.779 881.506 220.905 879.603 220.536C873.384 219.004 866.834 219.574 860.973 222.156C858.553 223.236 856.123 224.696 853.463 224.536C850.803 224.376 848.343 222.456 845.623 221.996C841.223 221.246 837.013 224.476 834.843 228.306C833.558 230.577 832.87 233.137 832.843 235.746V236.186C832.78 238.993 833.805 241.717 835.703 243.786C837.603 245.786 840.423 247.106 841.213 249.696C841.533 250.746 841.453 251.886 841.743 252.956C841.774 253.089 841.814 253.219 841.863 253.346L841.723 253.536C837.183 259.344 834.719 266.504 834.723 273.876C834.772 281.036 837.097 287.995 841.361 293.747C845.624 299.499 851.607 303.747 858.443 305.876C858.443 306.206 858.443 306.536 858.443 306.876C858.443 310.876 857.293 315.046 853.843 318.076L823.853 330.056C823.853 330.056 805.773 327.906 799.253 354.326C798.211 358.711 797.834 363.228 798.133 367.726C798.373 371.726 797.823 378.726 793.133 387.796C785.723 402.316 787.413 435.646 802.573 438.946C816.883 442.066 822.483 440.766 823.073 440.616V441.196C822.833 447.456 820.563 501.396 812.313 507.916C810.033 509.726 810.453 510.916 812.313 511.766C812.313 511.766 812.313 512.116 812.263 512.766C812.013 516.766 810.743 531.766 805.263 540.286C798.853 550.186 799.523 607.286 799.523 607.286L795.153 640.946C795.153 640.946 797.843 661.736 795.153 665.366C792.743 668.596 789.543 745.506 788.873 762.186H788.593C787.268 762.272 785.985 762.682 784.855 763.379C783.725 764.077 782.784 765.04 782.113 766.186C778.573 771.936 766.173 782.566 766.173 782.566C763.483 786.386 753.533 790.046 748.273 791.766C747.579 791.993 746.909 792.288 746.273 792.646C744.304 793.718 742.722 795.384 741.753 797.406C741.406 798.005 741.185 798.669 741.102 799.357C741.02 800.044 741.078 800.742 741.273 801.406C742.613 804.696 770.583 807.016 777.663 803.706C783.223 801.116 805.263 797.706 814.413 796.366C816.075 796.157 817.619 795.401 818.804 794.217C819.988 793.032 820.744 791.488 820.953 789.826C821.04 789.252 821.011 788.667 820.866 788.105C820.722 787.543 820.466 787.016 820.113 786.556V786.556C818.363 784.386 817.473 778.456 817.113 774.556C817.856 774.253 818.55 773.842 819.173 773.336C818.408 761.348 820.11 749.33 824.173 738.026C830.913 720.206 832.933 687.206 831.253 665.756C831.253 665.756 851.803 577.316 867.983 569.066C868.233 569.386 876.083 579.456 877.083 610.646C878.083 642.326 889.543 663.116 889.543 663.116C889.543 663.116 884.483 716.906 889.543 737.036L882.933 768.786C882.443 768.376 882.133 768.056 882.133 768.056C882.133 768.056 882.333 768.936 882.603 770.346L882.463 771.026L882.753 771.086C883.503 775.086 884.613 781.976 884.153 786.086C883.893 788.396 883.243 791.566 882.803 794.676C882.103 799.566 881.913 804.306 884.483 805.346C888.703 807.046 913.483 809.346 917.683 803.906C918.628 802.797 919.243 801.446 919.459 800.006C919.675 798.565 919.482 797.093 918.903 795.756C918.6 795.007 918.189 794.306 917.683 793.676C917.683 793.676 911.103 782.926 912.963 775.346C913.135 774.605 913.153 773.837 913.017 773.089C912.881 772.341 912.594 771.629 912.173 770.996C912.463 767.276 913.963 750.056 917.843 735.436C922.063 719.556 930.953 684.736 924.413 661.846C924.166 660.946 923.886 660.066 923.573 659.206C919.798 646.707 918.537 633.585 919.863 620.596C917.435 609.507 917.435 598.025 919.863 586.936C923.913 568.456 926.743 550.306 926.743 550.306C926.743 550.306 928.973 525.886 927.023 510.916C926.997 510.581 926.953 510.247 926.893 509.916L927.953 509.676C927.953 509.676 922.223 484.266 920.203 468.096C919.723 464.276 919.103 459.446 918.423 454.286C920.287 453.977 922.123 453.519 923.913 452.916C942.103 446.646 947.833 389.916 947.833 389.916V371.916C947.833 371.916 953.953 344.246 932.723 332.036ZM797.163 770.276C796.603 769.996 796.273 769.806 796.273 769.806L797.163 770.276Z" fill="url(#paint2_linear)"/>
<path id="Path 104" d="M921.743 659.566C929.633 682.256 920.423 719.086 916.143 735.566C911.863 752.046 910.553 771.746 910.553 771.746C893.783 774.376 881.613 771.086 881.613 771.086L888.523 737.216C883.583 717.156 888.523 663.546 888.523 663.546C888.523 663.546 877.343 642.826 876.353 611.256C875.353 580.186 867.723 570.136 867.483 569.826C851.703 578.046 831.643 666.186 831.643 666.186C833.283 687.556 831.303 720.446 824.733 738.186C820.742 749.462 819.066 761.427 819.803 773.366C817.503 775.366 814.303 775.646 810.803 775.086C801.413 773.566 790.153 765.476 790.153 765.476C790.153 765.476 793.763 669.476 796.403 665.836C799.043 662.196 796.403 641.496 796.403 641.496L800.673 607.956C800.673 607.956 800.013 551.056 806.263 541.196C811.663 532.676 812.903 517.696 813.143 513.766V512.766L822.663 501.366C822.663 501.366 914.743 494.456 921.663 501.366C923.353 503.056 924.403 506.916 925.023 511.766C926.923 526.686 924.743 551.016 924.743 551.016C924.743 551.016 921.983 569.106 918.033 587.516C915.665 598.574 915.665 610.008 918.033 621.066C916.763 634.018 918.023 647.094 921.743 659.566V659.566Z" fill="#303D67"/>
<path id="Path 105" d="M915.983 803.766C911.873 809.196 887.703 806.896 883.583 805.206C881.073 804.206 881.263 799.436 881.943 794.566C882.373 791.476 883.003 788.316 883.263 786.016C883.913 780.096 881.263 768.086 881.263 768.086C881.263 768.086 886.683 773.846 887.993 768.086C888.573 765.566 890.593 764.276 892.693 763.626C895.511 762.773 898.542 762.961 901.233 764.156C905.503 766.016 912.623 769.966 911.353 775.306C909.543 782.856 915.953 793.576 915.953 793.576C916.45 794.201 916.854 794.895 917.153 795.636C917.723 796.968 917.916 798.431 917.709 799.865C917.503 801.299 916.906 802.649 915.983 803.766V803.766Z" fill="#303D67"/>
<path id="Path 106" opacity="0.1" d="M915.983 803.766C911.873 809.196 887.703 806.896 883.583 805.206C881.073 804.206 881.263 799.436 881.943 794.566C884.543 795.786 888.943 796.796 896.313 796.116C898.031 795.953 899.758 795.899 901.483 795.956C906.718 796.192 911.962 796.085 917.183 795.636C917.749 796.971 917.937 798.435 917.725 799.87C917.513 801.304 916.911 802.652 915.983 803.766V803.766Z" fill="black"/>
<path id="Path 107" opacity="0.1" d="M831.633 666.146C833.273 687.516 831.293 720.406 824.723 738.146C820.732 749.422 819.056 761.387 819.793 773.326C817.493 775.326 814.293 775.606 810.793 775.046C812.793 761.176 821.233 701.416 826.643 654.196C832.813 600.426 861.643 563.436 861.643 563.436L867.393 569.766C851.693 578.006 831.633 666.146 831.633 666.146Z" fill="black"/>
<path id="Path 108" d="M906.113 320.506L902.113 340.236L882.443 373.286L858.193 362.926C858.193 362.926 825.193 328.396 845.943 323.466C848.423 322.932 850.766 321.89 852.823 320.406C856.893 317.336 858.173 312.876 858.193 308.506C858.039 303.616 856.903 298.808 854.853 294.366L897.273 281.046C895.541 286.62 894.532 292.394 894.273 298.226C893.943 309.786 898.273 315.476 901.763 318.226C903.051 319.261 904.529 320.035 906.113 320.506Z" fill="#FBBEBE"/>
<path id="Path 109" opacity="0.1" d="M897.233 281.046C895.501 286.62 894.492 292.394 894.233 298.226C893.459 299.148 892.635 300.026 891.763 300.856C887.383 305.039 881.953 307.959 876.048 309.305C870.143 310.652 863.984 310.376 858.223 308.506C858.06 303.614 856.913 298.806 854.853 294.366L897.233 281.046Z" fill="black"/>
<path id="Path 110" d="M902.103 275.616C902.069 283.334 899.362 290.803 894.443 296.75C889.523 302.698 882.695 306.758 875.12 308.238C867.545 309.719 859.691 308.53 852.894 304.873C846.096 301.217 840.776 295.318 837.838 288.18C834.899 281.043 834.524 273.108 836.776 265.726C839.029 258.343 843.769 251.969 850.191 247.687C856.613 243.406 864.32 241.481 872.001 242.241C879.682 243.001 886.863 246.399 892.321 251.856C895.433 254.98 897.899 258.686 899.577 262.764C901.256 266.841 902.114 271.21 902.103 275.619V275.616Z" fill="#FBBEBE"/>
<path id="Path 111" opacity="0.1" d="M906.113 320.506L902.113 340.236L882.443 373.286L858.193 362.926C858.193 362.926 825.193 328.396 845.943 323.466C848.423 322.932 850.766 321.89 852.823 320.406C849.083 330.686 864.523 352.076 864.523 352.076C866.323 354.726 870.443 353.076 870.443 353.076C880.393 351.566 898.703 322.956 901.693 318.196C903 319.25 904.502 320.035 906.113 320.506V320.506Z" fill="black"/>
<path id="Path 112" opacity="0.1" d="M925.103 511.786C919.263 513.116 886.953 520.266 874.703 518.476C861.223 516.476 835.013 515.196 835.013 515.196C835.013 515.196 818.323 516.096 813.183 513.746V512.746L822.703 501.346C822.703 501.346 914.783 494.436 921.703 501.346C923.433 503.076 924.483 506.936 925.103 511.786Z" fill="black"/>
<path id="Path 113" d="M864.513 353.066C864.513 353.066 847.163 329.066 853.703 319.666L824.393 331.666C824.393 331.666 806.753 329.526 800.393 355.856C799.377 360.232 799.009 364.733 799.303 369.216C799.543 373.216 799.003 380.216 794.473 389.216C787.243 403.686 788.883 436.906 803.683 440.216C818.483 443.526 823.733 441.856 823.733 441.856C823.733 441.856 821.733 502.036 813.213 508.946C804.693 515.856 835.013 514.206 835.013 514.206C835.013 514.206 861.223 515.526 874.713 517.496C888.203 519.466 926.013 510.586 926.013 510.586C926.013 510.586 920.423 485.266 918.443 469.156C916.463 453.046 911.853 418.726 911.853 418.726L945.393 373.286C945.393 373.286 951.313 345.826 930.593 333.656C909.873 321.486 902.083 318.506 902.083 318.506C902.083 318.506 881.263 352.406 870.413 354.046C870.433 354.046 866.313 355.706 864.513 353.066Z" fill="#F9C400"/>
<path id="Path 114" opacity="0.1" d="M826.033 362.596C826.033 362.596 825.713 373.456 827.683 377.726C829.653 381.996 836.893 405.726 836.893 405.726H820.443C820.443 405.726 829.323 396.186 828.673 391.576C828.023 386.966 826.033 362.596 826.033 362.596Z" fill="black"/>
<path id="Path 115" d="M874.713 444.486C874.713 444.486 838.393 435.606 835.013 428.046C831.633 420.486 822.303 403.556 822.303 403.556L826.133 398.396L843.793 412.256C843.793 412.256 864.793 429.026 874.713 430.676C884.633 432.326 874.713 444.486 874.713 444.486Z" fill="#FBBEBE"/>
<path id="Path 116" opacity="0.05" d="M874.713 444.486C874.713 444.486 838.393 435.606 835.013 428.046C831.633 420.486 822.303 403.556 822.303 403.556L826.133 398.396L843.793 412.256C843.793 412.256 864.793 429.026 874.713 430.676C884.633 432.326 874.713 444.486 874.713 444.486Z" fill="black"/>
<path id="Path 117" d="M906.113 401.736V421.436H902.953C887.298 421.434 871.902 425.422 858.217 433.025L852.293 436.306L850.703 437.196L840.503 414.196L850.043 405.646H850.533C852.863 405.876 862.953 406.716 867.233 405.276C871.293 403.896 876.333 399.526 888.293 402.576C894.183 404.086 899.223 410.686 904.933 408.626L906.113 401.736Z" fill="#FBBEBE"/>
<path id="Path 118" opacity="0.1" d="M937.853 365.856L944.423 373.256V391.186C944.423 391.186 938.833 447.746 921.083 453.996C903.333 460.246 871.623 450.376 871.623 450.376C871.623 450.376 863.433 428.676 867.263 427.376C871.093 426.076 901.113 418.136 901.113 418.136C901.113 418.136 900.693 384.956 907.263 375.086C907.263 375.086 902.993 344.176 917.793 343.516C932.593 342.856 937.853 365.856 937.853 365.856Z" fill="black"/>
<path id="Path 119" d="M938.853 365.856L945.433 373.256V391.186C945.433 391.186 939.843 447.746 922.083 453.996C904.323 460.246 872.623 450.376 872.623 450.376C872.623 450.376 864.433 428.676 868.273 427.376C872.113 426.076 902.123 418.136 902.123 418.136C902.123 418.136 901.693 384.956 908.273 375.086C908.273 375.086 903.993 344.176 918.793 343.516C933.593 342.856 938.853 365.856 938.853 365.856Z" fill="#F9C400"/>
<path id="Path 120" opacity="0.1" d="M892.903 289.856C893.186 287.69 892.929 285.488 892.153 283.446C891.223 281.446 889.053 279.936 886.933 280.446C884.123 281.106 882.933 284.766 880.153 285.646C877.823 286.386 875.283 284.736 874.153 282.566C873.023 280.396 873.013 277.846 873.013 275.406V267.166C873.013 264.166 872.913 260.946 871.073 258.596C868.783 255.676 863.393 254.396 859.793 254.516C857.398 254.543 855.1 255.467 853.353 257.106C851.433 258.746 849.203 259.946 846.583 259.516C845.491 259.353 844.467 258.883 843.631 258.16C842.796 257.438 842.182 256.493 841.863 255.436V255.336C844.653 251.626 848.183 248.536 852.229 246.261C856.275 243.986 860.749 242.576 865.368 242.12C869.987 241.663 874.651 242.17 879.064 243.609C883.477 245.048 887.544 247.387 891.006 250.479C894.468 253.57 897.251 257.347 899.179 261.569C901.106 265.792 902.136 270.369 902.204 275.01C902.271 279.651 901.374 284.256 899.57 288.533C897.766 292.809 895.094 296.665 891.723 299.856C892.302 296.547 892.696 293.209 892.903 289.856V289.856Z" fill="black"/>
<path id="Path 121" d="M846.583 258.546C845.49 258.378 844.466 257.905 843.629 257.182C842.793 256.458 842.177 255.514 841.853 254.456C841.583 253.396 841.653 252.266 841.343 251.216C840.573 248.626 837.813 247.286 835.963 245.316C832.263 241.386 832.503 234.926 835.123 230.196C837.243 226.386 841.343 223.196 845.643 223.916C848.303 224.376 850.643 226.266 853.303 226.446C855.963 226.626 858.303 225.156 860.633 224.076C866.346 221.482 872.772 220.911 878.853 222.456C880.718 222.831 882.446 223.705 883.853 224.986C884.808 226.188 885.699 227.44 886.523 228.736C889.583 232.636 895.073 233.406 899.963 234.286C904.853 235.166 910.383 237.106 911.963 241.806C913.033 244.926 911.963 248.306 911.383 251.546C911.191 252.207 911.237 252.915 911.513 253.546C912.283 254.806 914.193 254.276 915.633 254.546C918.403 255.136 919.113 258.706 919.223 261.546C919.336 264.786 919.423 268.029 919.483 271.276C919.563 272.484 919.465 273.697 919.193 274.876C918.593 276.566 917.642 278.11 916.403 279.406L905.543 292.456C900.723 298.236 895.613 304.976 896.543 312.456C894.263 313.456 891.543 311.506 890.803 309.116C890.063 306.726 890.653 304.116 891.163 301.706C892.048 297.47 892.63 293.175 892.903 288.856C893.186 286.693 892.929 284.494 892.153 282.456C891.223 280.456 889.053 278.946 886.933 279.456C884.113 280.116 882.933 283.776 880.153 284.656C877.823 285.396 875.283 283.746 874.153 281.576C873.023 279.406 873.013 276.866 873.013 274.426V266.176C873.013 263.176 872.913 259.956 871.073 257.606C868.783 254.686 863.393 253.406 859.793 253.526C857.401 253.555 855.107 254.479 853.363 256.116C851.433 257.766 849.203 258.976 846.583 258.546Z" fill="#7C5C5C"/>
<path id="Path 122" opacity="0.1" d="M854.153 361.776L864.453 404.086C864.453 404.086 872.573 404.036 854.153 361.776Z" fill="black"/>
<path id="Path 123" opacity="0.1" d="M889.343 354.706C889.343 354.706 875.863 376.786 881.123 399.626L883.633 399.806C883.633 399.806 879.153 389.236 889.343 354.706Z" fill="black"/>
<path id="Path 124" opacity="0.1" d="M897.853 479.676C897.853 479.676 914.413 474.196 915.613 486.906C915.653 486.906 912.533 478.196 897.853 479.676Z" fill="black"/>
<path id="Path 125" opacity="0.1" d="M850.043 406.666C850.043 406.666 846.753 429.666 852.673 438.896C852.673 438.896 840.673 443.826 823.733 442.846L821.733 406.666H850.043Z" fill="black"/>
<path id="Path 126" opacity="0.1" d="M852.293 436.306L850.703 437.196L840.503 414.196L850.043 405.646H850.533C850.383 406.786 847.723 426.556 852.293 436.306Z" fill="black"/>
<path id="Path 127" d="M850.043 405.686C850.043 405.686 846.753 428.686 852.673 437.906C852.673 437.906 840.673 442.846 823.733 441.856L812.223 405.686H850.043Z" fill="#F9C400"/>
<path id="Path 128" d="M821.603 789.766C821.412 791.408 820.68 792.939 819.524 794.119C818.367 795.3 816.85 796.062 815.213 796.286C806.283 797.616 784.773 801.016 779.343 803.606C772.433 806.896 745.143 804.606 743.823 801.306C743.632 800.641 743.576 799.946 743.657 799.259C743.737 798.572 743.954 797.908 744.293 797.306C745.229 795.302 746.772 793.644 748.703 792.566C749.341 792.211 750.01 791.916 750.703 791.686C755.843 789.976 765.553 786.336 768.173 782.516C768.173 782.516 780.283 771.926 783.733 766.206C784.381 765.08 785.297 764.132 786.4 763.445C787.502 762.757 788.757 762.352 790.053 762.266C792.933 762.136 796.143 763.586 797.463 769.896C797.463 769.896 813.233 778.896 817.463 771.006C817.463 771.006 818.123 783.126 820.743 786.446C821.101 786.914 821.362 787.448 821.51 788.019C821.657 788.589 821.689 789.183 821.603 789.766V789.766Z" fill="#303D67"/>
<path id="Path 129" opacity="0.1" d="M821.603 789.766C821.412 791.408 820.68 792.939 819.524 794.119C818.367 795.3 816.85 796.062 815.213 796.286C806.283 797.616 784.773 801.016 779.343 803.606C772.433 806.896 745.143 804.606 743.823 801.306C743.632 800.641 743.576 799.946 743.657 799.259C743.737 798.572 743.954 797.908 744.293 797.306C745.229 795.303 746.772 793.644 748.703 792.566C753.153 795.566 763.033 798.406 784.763 795.016C805.493 791.776 815.763 788.606 820.763 786.446C821.118 786.915 821.375 787.451 821.519 788.021C821.663 788.591 821.692 789.185 821.603 789.766V789.766Z" fill="black"/>
<g id="Group 4" opacity="0.1">
<path id="Path 130" opacity="0.1" d="M911.333 252.006V251.846C911.803 249.386 912.513 246.846 912.333 244.376C912.123 246.395 911.789 248.398 911.333 250.376C911.21 250.912 911.21 251.47 911.333 252.006V252.006Z" fill="black"/>
<path id="Path 131" opacity="0.1" d="M892.143 282.786C892.666 283.971 892.942 285.251 892.953 286.546C893.101 284.76 892.823 282.964 892.143 281.306C891.223 279.306 889.053 277.796 886.933 278.306C884.113 278.966 882.933 282.626 880.143 283.506C877.823 284.246 875.283 282.596 874.143 280.426C873.003 278.256 873.003 275.706 873.003 273.266V265.026C873.003 262.026 872.903 258.806 871.063 256.456C868.763 253.526 863.383 252.256 859.783 252.366C857.387 252.397 855.089 253.324 853.343 254.966C851.413 256.606 849.193 257.806 846.563 257.376C845.472 257.209 844.45 256.738 843.615 256.016C842.78 255.295 842.166 254.352 841.843 253.296C841.573 252.236 841.643 251.096 841.333 250.046C840.563 247.466 837.803 246.116 835.953 244.156C834.218 242.232 833.234 239.747 833.183 237.156C833.047 238.676 833.222 240.207 833.698 241.657C834.175 243.106 834.942 244.443 835.953 245.586C837.803 247.586 840.563 248.896 841.333 251.476C841.643 252.476 841.573 253.666 841.843 254.726C842.166 255.782 842.78 256.725 843.615 257.446C844.45 258.168 845.472 258.639 846.563 258.806C849.193 259.236 851.413 258.036 853.343 256.396C855.089 254.754 857.387 253.827 859.783 253.796C863.383 253.686 868.783 254.956 871.063 257.886C872.903 260.236 872.993 263.466 873.003 266.456V274.696C873.003 277.136 873.003 279.696 874.143 281.846C875.283 283.996 877.793 285.676 880.143 284.936C882.903 284.056 884.143 280.396 886.933 279.736C889.053 279.276 891.223 280.856 892.143 282.786Z" fill="black"/>
<path id="Path 132" opacity="0.1" d="M919.173 273.736C918.571 275.424 917.616 276.965 916.373 278.256L905.513 291.306C900.943 296.796 896.113 303.156 896.513 310.166C896.843 303.736 901.323 297.886 905.513 292.786L916.373 279.736C917.616 278.445 918.571 276.904 919.173 275.216C919.445 274.033 919.542 272.817 919.463 271.606C919.447 272.325 919.35 273.039 919.173 273.736V273.736Z" fill="black"/>
<path id="Path 133" opacity="0.1" d="M890.853 307.966C890.675 307.394 890.564 306.804 890.523 306.206C890.432 307.297 890.544 308.396 890.853 309.446C891.593 311.826 894.303 313.796 896.593 312.776C896.528 312.298 896.488 311.818 896.473 311.336C894.193 312.246 891.553 310.306 890.853 307.966Z" fill="black"/>
</g>
<path id="Path 134" opacity="0.1" d="M781.543 769.216C781.543 769.216 784.983 775.216 797.443 769.936Z" fill="black"/>
<path id="Path 135" opacity="0.1" d="M886.853 770.676C886.853 770.676 897.593 783.326 911.133 774.826Z" fill="black"/>
<path id="Path 136" opacity="0.1" d="M918.113 621.086C918.113 621.086 910.523 625.826 910.283 628.536C910.043 631.246 914.203 626.536 914.203 626.536L918.113 621.086Z" fill="black"/>
<path id="Path 137" opacity="0.1" d="M921.113 657.446C918.473 659.642 915.192 660.923 911.763 661.096C906.083 661.346 906.563 668.746 910.273 666.526C913.983 664.306 921.113 657.446 921.113 657.446Z" fill="black"/>
<path id="Path 138" opacity="0.1" d="M922.553 662.196C922.553 662.196 918.913 680.086 915.953 676.636Z" fill="black"/>
</g>
<g id="person1">
<path id="Path 139" d="M219.333 796.276C219.333 796.276 242.183 802.546 253.183 794.206C264.183 785.866 268.953 788.546 268.953 788.546C268.953 788.546 295.183 787.096 297.343 780.896C299.503 774.696 287.283 752.176 287.283 752.176C286.413 750.176 285.143 747.636 284.573 747.636L284.693 738.136L288.493 698.386C297.263 675.896 288.653 646.836 288.653 646.836L287.083 639.626C286.201 635.573 286.726 631.34 288.573 627.626L304.503 595.626C305.355 593.511 306.358 591.459 307.503 589.486C308.503 587.656 309.833 585.396 311.503 582.686C311.993 581.906 312.503 581.096 313.063 580.246C314.993 577.246 317.333 573.846 320.163 569.926C327.213 560.156 330.923 547.926 332.843 538.926L333.693 541.746H333.883L334.113 541.796H334.493L334.903 541.866H335.053L339.953 604.226C340.253 628.546 349.183 642.006 349.183 642.006L347.953 695.696C349.633 708.626 345.953 725.866 344.263 732.746L340.403 741.456C338.883 742.215 337.571 743.333 336.579 744.713C335.588 746.093 334.948 747.693 334.713 749.376C333.953 755.806 327.183 769.666 327.183 769.666C324.563 772.986 318.873 781.956 318.873 781.956C318.873 781.956 316.193 790.616 317.853 793.856C319.513 797.096 333.393 796.766 333.393 796.766C349.243 800.276 361.393 791.766 360.623 785.906C359.853 780.046 363.093 778.556 363.093 778.556C369.393 776.556 368.783 772.286 368.783 772.286C370.139 763.478 368.457 754.471 364.013 746.746L363.013 749.056C362.742 744.432 363.388 739.8 364.913 735.426L364.333 735.826L364.153 735.936H364.093C365.093 727.166 374.303 710.936 374.303 710.936C391.223 681.256 385.073 641.036 385.073 641.036L382.453 628.496L382.303 623.766C381.945 612.474 382.799 601.176 384.853 590.066C385.763 585.146 386.703 579.206 387.423 572.656C388.943 558.816 393.843 544.536 396.103 538.486L396.773 538.366H396.853C397.773 538.206 398.703 538.046 399.643 537.866H399.823C399.823 537.866 400.363 534.946 400.823 529.976C401.093 526.806 401.313 522.786 401.313 518.166C401.381 504.216 399.251 490.343 395.003 477.056L395.513 476.326C395.513 476.326 396.723 474.686 398.933 471.846C402.993 466.686 409.313 458.846 417.103 450.006C431.053 434.096 426.953 418.006 426.953 418.006C426.953 418.006 416.853 380.996 412.353 358.776C409.783 346.116 404.963 337.506 401.273 332.426C402.105 328.923 402.574 325.345 402.673 321.746C402.973 315.166 402.743 308.306 399.783 302.396C396.823 296.486 390.523 291.816 383.943 292.606C383.01 292.831 382.036 292.831 381.103 292.606C380.334 292.257 379.683 291.69 379.233 290.976C375.383 285.666 375.133 278.526 376.333 272.086C377.533 265.646 379.993 259.486 381.093 253.026C382.193 246.566 381.693 239.396 377.583 234.276C372.753 228.276 364.333 226.586 358.053 222.076C353.643 218.906 350.333 214.356 345.683 211.546C341.033 208.736 336.683 209.806 331.633 210.866C323.143 212.656 315.073 213.476 307.043 217.126C298.912 220.808 291.619 226.113 285.613 232.716C283.481 234.844 281.848 237.42 280.833 240.256C278.833 246.866 282.743 253.906 281.923 260.746C281.343 265.596 278.483 269.816 276.213 274.146C273.943 278.476 272.213 283.616 273.993 288.146C276.793 295.226 285.923 296.726 292.563 300.496C293.45 300.93 294.208 301.589 294.763 302.406C296.403 305.266 293.053 308.236 290.943 310.776C289.735 312.258 288.88 313.995 288.443 315.856C285.694 316.984 283.265 318.771 281.37 321.059C279.474 323.347 278.17 326.066 277.573 328.976C275.323 339.046 278.783 351.756 281.833 360.156C278.503 378.866 282.833 386.246 286.023 389.076C289.252 391.842 291.252 395.777 291.583 400.016V400.366C291.793 403.766 292.153 407.156 292.633 410.536C292.523 409.746 292.413 408.906 292.353 408.536C289.743 413.366 284.773 425.706 281.973 446.466C281.39 450.915 280.545 455.326 279.443 459.676C277.44 467.379 276.724 475.36 277.323 483.296L277.823 490.026C277.331 490.038 276.85 489.879 276.463 489.576L279.973 496.006V506.856C279.969 511.749 279.067 516.599 277.313 521.166C277.063 521.826 276.793 522.486 276.503 523.166C275.601 524.992 275.194 527.023 275.323 529.056C267.773 540.626 250.463 605.466 250.463 605.466C241.073 626.726 251.233 640.466 251.233 640.466C251.233 640.466 256.153 699.656 257.073 702.716C257.993 705.776 260.033 741.856 260.033 741.856V744.726C259.487 744.488 258.912 744.323 258.323 744.236C250.093 743.776 247.863 756.776 247.863 756.776L231.023 772.856C231.023 772.856 223.333 771.556 212.023 780.046C200.713 788.536 219.333 796.276 219.333 796.276ZM387.483 454.186L387.433 454.006L386.973 454.276L386.783 454.386L386.693 454.446L378.933 427.056C376.856 419.713 376.66 411.965 378.363 404.526L384.363 378.246V371.926L403.433 422.746C404.653 429.596 393.323 446.186 387.483 454.186Z" fill="url(#paint3_linear)"/>
<path id="Path 140" d="M395.853 536.856C395.853 536.856 388.153 555.586 386.193 573.556C385.483 580.036 384.563 585.896 383.663 590.756C381.665 601.727 380.84 612.88 381.203 624.026L381.353 628.696L383.853 641.066C383.853 641.066 389.853 680.796 373.283 710.066C373.283 710.066 363.463 727.596 363.163 735.896L356.513 738.466L343.073 734.696C343.073 734.696 349.563 711.426 347.453 695.116L348.663 642.116C348.663 642.116 339.933 628.856 339.633 604.856L334.503 538.996L395.853 536.856Z" fill="#FDC2CC"/>
<path id="Path 141" d="M334.503 527.476C334.503 527.476 332.853 553.156 320.153 570.856C307.453 588.556 304.753 596.236 304.753 596.236L289.113 627.856C287.302 631.52 286.784 635.69 287.643 639.686L289.183 646.806C289.183 646.806 297.643 675.506 289.033 697.716L284.953 740.616H261.093C261.093 740.616 259.093 704.966 258.223 701.946C257.353 698.926 252.483 640.466 252.483 640.466C252.483 640.466 242.483 626.866 251.723 605.876C251.723 605.876 272.573 527.326 278.153 528.686C283.733 530.046 334.503 527.476 334.503 527.476Z" fill="#FDC2CC"/>
<g id="Group 5" opacity="0.1">
<path id="Path 142" opacity="0.1" d="M286.763 646.856L285.233 639.736C284.35 635.725 284.865 631.534 286.693 627.856L302.333 596.206C302.333 596.206 305.043 588.506 317.733 570.826C329.923 553.826 331.933 529.466 332.073 527.596L334.503 527.476C334.503 527.476 332.853 553.156 320.153 570.856C307.453 588.556 304.753 596.236 304.753 596.236L289.113 627.856C287.302 631.52 286.784 635.69 287.643 639.686L289.183 646.806C289.183 646.806 297.643 675.506 289.033 697.716L284.953 740.616H282.533L286.613 697.716C295.223 675.506 286.763 646.856 286.763 646.856Z" fill="black"/>
</g>
<path id="Path 143" opacity="0.1" d="M360.783 735.926C361.083 727.626 370.903 710.096 370.903 710.096C387.523 680.796 381.473 641.096 381.473 641.096L378.913 628.716L378.763 624.046C378.4 612.9 379.225 601.747 381.223 590.776C382.113 585.916 383.033 580.056 383.743 573.576C385.633 556.276 392.843 538.276 393.373 536.956L395.853 536.856C395.853 536.856 388.153 555.586 386.193 573.556C385.483 580.036 384.563 585.896 383.663 590.756C381.665 601.727 380.84 612.88 381.203 624.026L381.353 628.696L383.853 641.066C383.853 641.066 389.853 680.796 373.283 710.066C373.283 710.066 363.463 727.596 363.163 735.896L356.513 738.466L355.113 738.076L360.783 735.926Z" fill="black"/>
<path id="Path 144" d="M353.083 735.626C354.884 736.339 356.835 736.588 358.757 736.35C360.679 736.113 362.51 735.396 364.083 734.266C361.882 740.69 361.57 747.61 363.183 754.206C365.903 765.086 337.803 745.446 337.803 745.446L343.803 731.736C343.803 731.736 346.133 736.076 353.083 735.626Z" fill="#D39999"/>
<path id="Path 145" opacity="0.1" d="M355.173 736.236C356.718 736.548 358.312 736.531 359.851 736.187C361.39 735.842 362.838 735.178 364.103 734.236C361.902 740.66 361.59 747.58 363.203 754.176C365.923 765.056 337.823 745.416 337.823 745.416L343.823 731.706C343.823 731.706 345.563 735.046 350.673 735.566C352.223 735.746 353.703 735.956 355.173 736.236Z" fill="black"/>
<path id="Path 146" d="M289.333 481.496H301.073V414.886L292.263 413.306L289.333 481.496Z" fill="#FDC2CC"/>
<path id="Path 147" opacity="0.05" d="M289.333 481.496H301.073V414.886L292.263 413.306L289.333 481.496Z" fill="black"/>
<path id="Path 148" d="M346.433 740.766C346.433 740.766 353.833 740.306 357.153 746.956L361.233 750.126L363.233 745.446C367.574 753.095 369.202 761.986 367.853 770.676C367.853 770.676 368.453 774.896 362.263 776.866C362.263 776.866 359.093 778.376 359.843 784.116C360.593 789.856 348.673 798.316 333.113 794.836C333.113 794.836 319.513 795.146 317.853 791.966C316.193 788.786 318.913 780.336 318.913 780.336C318.913 780.336 324.503 771.476 327.063 768.206C327.063 768.206 333.713 754.506 334.473 748.206C335.233 741.906 342.503 737.286 346.433 740.766Z" fill="#7E5659"/>
<path id="Path 149" d="M285.183 746.356L285.303 736.966C285.303 736.966 271.793 740.856 260.853 736.456C260.853 736.456 261.773 745.896 260.253 747.186C258.733 748.476 265.313 760.626 265.313 760.626L272.663 768.326L285.303 763.726L288.733 752.926C288.733 752.926 286.083 746.356 285.183 746.356Z" fill="#D39999"/>
<path id="Path 150" opacity="0.1" d="M285.183 746.356L285.303 736.966C285.303 736.966 271.793 740.856 260.853 736.456C260.853 736.456 261.773 745.896 260.253 747.186C258.733 748.476 265.313 760.626 265.313 760.626L272.663 768.326L285.303 763.726L288.733 752.926C288.733 752.926 286.083 746.356 285.183 746.356Z" fill="black"/>
<path id="Path 151" d="M259.423 742.956C259.423 742.956 266.603 743.786 265.693 752.956C264.783 762.126 266.073 752.956 266.073 752.956C266.073 752.956 273.703 756.046 276.423 760.356C279.143 764.666 284.053 756.506 284.423 754.166C284.793 751.826 287.853 750.856 287.853 750.856C287.853 750.856 299.853 773.106 297.733 779.226C295.613 785.346 269.853 786.756 269.853 786.756C269.853 786.756 265.163 784.116 254.363 792.346C243.563 800.576 221.133 794.346 221.133 794.346C221.133 794.346 202.853 786.716 213.963 778.346C225.073 769.976 232.613 771.246 232.613 771.246L249.153 755.306C249.153 755.306 251.343 742.496 259.423 742.956Z" fill="#7E5659"/>
<path id="Path 152" d="M345.173 216.946C349.743 219.716 352.993 224.216 357.323 227.346C363.483 231.796 371.753 233.456 376.493 239.396C380.493 244.456 381.013 251.526 379.933 257.906C378.853 264.286 376.433 270.376 375.263 276.736C374.093 283.096 374.333 290.146 378.113 295.386C378.552 296.091 379.188 296.651 379.943 296.996C380.86 297.215 381.816 297.215 382.733 296.996C389.193 296.216 395.393 300.836 398.293 306.666C401.193 312.496 401.423 319.276 401.123 325.776C400.873 331.106 400.273 336.546 397.933 341.346C393.933 349.506 385.613 354.546 377.403 358.406C372.067 360.915 366.595 363.125 361.013 365.026C357.173 366.326 353.123 367.496 349.133 366.816C342.303 365.636 337.463 359.426 330.983 356.996C325.673 354.996 319.783 355.716 314.133 356.216C309.313 356.636 303.803 356.626 300.483 353.106C296.223 348.586 298.143 341.296 300.323 335.476C298.014 335.33 295.791 334.548 293.898 333.217C292.006 331.887 290.518 330.059 289.599 327.935C288.68 325.812 288.366 323.476 288.691 321.186C289.017 318.895 289.969 316.739 291.443 314.956C293.503 312.446 296.793 309.516 295.183 306.686C294.642 305.879 293.897 305.23 293.023 304.806C286.513 301.086 277.543 299.596 274.803 292.616C273.043 288.126 274.743 283.046 276.973 278.776C279.203 274.506 281.973 270.326 282.583 265.546C283.383 258.786 279.583 251.836 281.513 245.316C282.511 242.516 284.112 239.969 286.203 237.856C292.081 231.349 299.228 226.112 307.203 222.466C315.093 218.856 323.003 218.046 331.343 216.286C336.343 215.226 340.483 214.106 345.173 216.946Z" fill="#865A61"/>
<path id="Path 153" d="M301.063 317.616C301.063 317.616 281.933 316.616 278.313 332.926C274.693 349.236 286.163 372.596 286.163 372.596L301.063 317.616Z" fill="#FDC2CC"/>
<path id="Path 154" opacity="0.05" d="M301.063 317.616C301.063 317.616 281.933 316.616 278.313 332.926C274.693 349.236 286.163 372.596 286.163 372.596L301.063 317.616Z" fill="black"/>
<path id="Path 155" d="M288.853 366.156L296.103 371.896L329.933 373.406L351.053 358.906L372.533 322.046C359.403 318.696 354.093 309.626 352.113 301.146C350.853 295.407 350.711 289.479 351.693 283.686C351.693 283.686 317.253 265.856 321.483 293.686C322.063 297.102 322.171 300.581 321.803 304.026C319.803 320.326 303.983 317.256 303.983 317.256L297.913 326.616L290.963 349.616L288.853 366.156Z" fill="#FDC2CC"/>
<path id="Path 156" opacity="0.1" d="M321.513 293.646C322.093 297.062 322.201 300.541 321.833 303.986C326.692 306.206 332.048 307.112 337.367 306.613C342.686 306.115 347.781 304.23 352.143 301.146C350.883 295.407 350.741 289.479 351.723 283.686C351.723 283.686 317.283 265.856 321.513 293.646Z" fill="black"/>
<path id="Ellipse 18" d="M334.523 305.536C351.373 305.536 365.033 291.876 365.033 275.026C365.033 258.176 351.373 244.516 334.523 244.516C317.673 244.516 304.013 258.176 304.013 275.026C304.013 291.876 317.673 305.536 334.523 305.536Z" fill="#FDC2CC"/>
<path id="Path 157" d="M312.943 360.336C313.683 360.336 314.413 360.446 315.143 360.516C319.143 360.916 335.853 361.816 345.373 350.446C356.023 337.726 370.203 322.016 370.783 321.376L385.213 325.736C385.213 325.736 373.793 321.676 366.213 342.916C364.55 347.371 364.375 352.245 365.714 356.808C367.054 361.371 369.835 365.377 373.643 368.226C376.446 370.257 379.674 371.625 383.083 372.226C383.087 372.234 383.09 372.242 383.09 372.251C383.09 372.26 383.087 372.268 383.083 372.276V381.596L377.183 407.596C375.507 414.943 375.699 422.593 377.743 429.846L386.743 461.656C385.383 462.596 329.543 500.576 292.243 474.346C292.383 473.206 296.993 435.876 293.793 417.606C292.971 412.934 292.414 408.22 292.123 403.486C292.123 403.366 292.123 403.256 292.123 403.136C291.793 398.956 289.827 395.075 286.653 392.336C283.293 389.336 278.743 381.336 283.243 360.196C284.38 354.96 286.055 349.857 288.243 344.966L300.753 316.696L312.283 316.926V317.006C311.283 318.246 297.913 334.946 296.463 345.706C295.043 355.936 293.293 359.076 312.943 360.336Z" fill="#FE9194"/>
<path id="Path 158" d="M394.923 330.706C394.923 330.706 406.203 340.376 410.633 362.326C415.063 384.276 424.933 420.736 424.933 420.736C424.933 420.736 428.933 436.646 415.263 452.356C401.593 468.066 392.503 480.356 392.503 480.356L383.503 493.616C381.968 495.876 379.666 497.504 377.023 498.196C372.923 499.276 366.623 500.056 361.163 497.066C359.176 495.955 357.668 494.15 356.93 491.996C356.192 489.843 356.275 487.492 357.163 485.396L359.163 480.766C359.163 480.766 340.633 492.446 339.023 485.996C337.413 479.546 360.573 473.106 360.573 473.106C360.573 473.106 379.703 469.886 383.573 460.826C383.573 460.826 404.113 434.436 402.503 425.376L382.663 372.206C382.663 372.206 357.853 368.926 366.313 341.056C374.773 313.186 394.923 330.706 394.923 330.706Z" fill="#FDC2CC"/>
<path id="Path 159" d="M276.293 531.306C276.293 531.306 321.613 540.366 332.293 539.156L333.443 542.986C333.443 542.986 350.643 546.836 389.533 540.666C392.073 540.266 394.71 539.816 397.443 539.316L398.353 539.156C398.353 539.156 398.883 536.276 399.303 531.366C400.233 520.216 400.563 498.626 392.713 476.526L386.173 456.386C386.173 456.386 345.753 480.616 318.993 478.386C316.603 478.186 314.233 477.996 311.843 477.916C306.353 477.706 297.843 477.916 292.313 473.486L280.713 475.486V508.486C280.709 513.313 279.821 518.099 278.093 522.606C277.843 523.266 277.583 523.916 277.293 524.606C276.229 526.668 275.877 529.024 276.293 531.306Z" fill="#303D67"/>
<path id="Path 160" opacity="0.1" d="M333.433 532.716V542.986C333.433 542.986 353.233 547.416 398.343 539.156C398.343 539.156 398.873 536.276 399.293 531.366C385.453 533.586 347.283 538.926 333.433 532.716Z" fill="black"/>
<path id="Path 161" opacity="0.1" d="M276.293 531.306C276.293 531.306 321.613 540.366 332.293 539.156L333.443 542.986V532.716C328.283 534.856 291.443 525.976 278.093 522.646C277.843 523.306 277.583 523.956 277.293 524.646C276.237 526.696 275.886 529.036 276.293 531.306V531.306Z" fill="black"/>
<g id="Group 6" opacity="0.05">
<path id="Path 164" opacity="0.05" d="M316.563 478.376C314.183 478.176 311.803 477.986 309.413 477.906C304.073 477.706 295.923 477.906 290.363 473.816L292.303 473.476C297.863 477.886 306.303 477.696 311.833 477.906C314.223 477.986 316.593 478.176 318.983 478.376C319.763 478.446 320.563 478.486 321.373 478.506C319.769 478.549 318.163 478.505 316.563 478.376V478.376Z" fill="black"/>
<path id="Path 165" opacity="0.05" d="M387.103 540.666C389.643 540.266 392.28 539.819 395.013 539.326L395.933 539.156C395.933 539.156 396.463 536.276 396.873 531.366C397.813 520.216 398.143 498.626 390.283 476.526L384.123 457.526C385.433 456.786 386.123 456.356 386.123 456.356L392.663 476.496C400.513 498.596 400.183 520.186 399.253 531.336C398.833 536.246 398.303 539.126 398.303 539.126L397.393 539.296C394.666 539.789 392.03 540.236 389.483 540.636C371.313 543.516 357.893 544.216 348.733 544.136C361.592 543.941 374.418 542.781 387.103 540.666V540.666Z" fill="black"/>
<path id="Path 166" opacity="0.05" d="M329.853 539.156V539.266H328.553C329.046 539.233 329.48 539.196 329.853 539.156Z" fill="black"/>
</g>
<path id="Path 167" d="M282.653 448.946C285.413 428.446 290.283 416.266 292.853 411.496C292.953 412.146 293.213 414.256 293.333 414.906C293.853 417.906 293.393 421.686 293.553 425.496L290.993 471.856L294.423 486.356C297.643 497.836 285.713 488.766 285.713 488.766C283.243 494.206 278.713 493.606 278.713 493.606L278.093 485.286C277.506 477.448 278.208 469.567 280.173 461.956C281.257 457.672 282.086 453.328 282.653 448.946V448.946Z" fill="#FDC2CC"/>
<path id="Path 168" opacity="0.05" d="M282.653 448.946C285.413 428.446 290.283 416.266 292.853 411.496C292.953 412.146 293.213 414.256 293.333 414.906C293.853 417.906 293.393 421.686 293.553 425.496L290.993 471.856L294.423 486.356C297.643 497.836 285.713 488.766 285.713 488.766C283.243 494.206 278.713 493.606 278.713 493.606L278.093 485.286C277.506 477.448 278.208 469.567 280.173 461.956C281.257 457.672 282.086 453.328 282.653 448.946V448.946Z" fill="black"/>
<path id="Path 169" d="M397.433 473.956C395.263 476.766 394.073 478.376 394.073 478.376L385.073 491.626C383.542 493.89 381.238 495.518 378.593 496.206C374.493 497.286 368.193 498.076 362.733 495.076C360.745 493.969 359.236 492.165 358.498 490.013C357.759 487.86 357.843 485.511 358.733 483.416L360.733 478.776C360.733 478.776 342.203 490.456 340.593 484.016C338.983 477.576 362.143 471.126 362.143 471.126C362.143 471.126 381.273 467.906 385.143 458.836C385.143 458.836 386.813 456.696 389.143 453.416" fill="#FDC2CC"/>
<path id="Path 170" d="M386.163 496.166C386.163 496.166 364.253 494.036 357.313 481.506L354.133 491.856C354.133 491.856 377.133 507.736 382.383 505.676L386.163 496.166Z" fill="#65617D"/>
<path id="Path 171" opacity="0.1" d="M385.383 496.066C385.383 496.066 363.483 493.936 356.533 481.396L353.363 491.716C353.363 491.716 376.363 507.596 381.603 505.536L385.383 496.066Z" fill="black"/>
<path id="Path 172" d="M286.433 490.316C286.433 490.316 278.763 493.036 277.253 491.526L280.703 497.876L287.223 492.876L286.433 490.316Z" fill="#65617D"/>
<path id="Path 173" opacity="0.1" d="M286.433 490.316C286.433 490.316 278.763 493.036 277.253 491.526L280.703 497.876L287.223 492.876L286.433 490.316Z" fill="black"/>
<path id="Path 174" opacity="0.1" d="M333.433 532.716V519.466L330.283 533.036L333.433 532.716Z" fill="black"/>
<path id="Path 175" opacity="0.1" d="M364.503 258.916C362.653 261.516 359.443 262.836 356.283 263.246C353.123 263.656 349.923 263.306 346.733 263.246C341.733 263.166 336.413 263.936 332.323 266.876C329.713 268.746 327.753 271.376 325.713 273.876C319.533 281.426 310.953 288.496 301.213 287.706C300.365 287.706 299.525 287.536 298.744 287.206C297.962 286.877 297.255 286.394 296.663 285.786C295.869 284.554 295.465 283.111 295.503 281.646C295.084 275.422 295.282 269.171 296.093 262.986C296.484 259.158 297.434 255.408 298.913 251.856C300.654 248.295 302.942 245.029 305.693 242.176C309.02 238.316 313.031 235.102 317.523 232.696C322.062 230.288 327.321 229.61 332.323 230.786C338.153 232.376 342.693 236.936 348.253 239.286C354.603 241.956 371.463 249.086 364.503 258.916Z" fill="black"/>
<path id="Path 176" d="M364.503 257.706C362.653 260.306 359.443 261.626 356.283 262.036C353.123 262.446 349.923 262.096 346.733 262.036C341.733 261.946 336.413 262.716 332.323 265.656C329.713 267.526 327.753 270.156 325.713 272.656C319.533 280.206 310.953 287.276 301.213 286.486C300.364 286.488 299.524 286.32 298.742 285.99C297.961 285.66 297.253 285.176 296.663 284.566C295.868 283.335 295.463 281.891 295.503 280.426C295.084 274.202 295.282 267.951 296.093 261.766C296.484 257.938 297.434 254.188 298.913 250.636C300.651 247.077 302.939 243.814 305.693 240.966C309.017 237.1 313.028 233.883 317.523 231.476C322.062 229.068 327.321 228.39 332.323 229.566C338.153 231.156 342.693 235.716 348.253 238.066C354.603 240.746 371.463 247.856 364.503 257.706Z" fill="#865A61"/>
<path id="Path 177" d="M292.313 473.466L292.233 477.116L291.413 473.626L292.313 473.466Z" fill="#FDC2CC"/>
<path id="Path 178" opacity="0.05" d="M292.313 473.466L292.233 477.116L291.413 473.626L292.313 473.466Z" fill="black"/>
<g id="Group 7" opacity="0.05">
<path id="Path 179" opacity="0.05" d="M369.433 339.146C360.963 367.016 385.653 370.286 385.653 370.286L405.493 423.456C407.103 432.516 386.553 458.906 386.553 458.906C385.123 462.286 381.553 464.856 377.653 466.756C379.932 465.368 381.764 463.355 382.933 460.956C382.933 460.956 403.473 434.576 401.863 425.516L382.023 372.336C382.023 372.336 357.343 369.066 365.803 341.196C368.633 331.886 372.803 327.646 377.023 326.126C374.113 328.466 371.443 332.516 369.433 339.146Z" fill="black"/>
</g>
<g id="Group 8" opacity="0.1">
<path id="Path 180" opacity="0.1" d="M369.853 364.466C371.013 365.901 372.358 367.175 373.853 368.256C376.654 370.291 379.883 371.659 383.293 372.256V373.306C380.207 372.652 377.291 371.361 374.733 369.516C372.831 368.122 371.181 366.414 369.853 364.466V364.466Z" fill="black"/>
<path id="Path 181" opacity="0.1" d="M293.133 404.336V404.686C293.445 409.437 294.019 414.168 294.853 418.856C297.853 436.096 293.923 470.326 293.363 475.056C293.043 474.846 292.723 474.646 292.363 474.416C292.513 473.276 297.123 435.946 293.923 417.686C293.103 413.014 292.545 408.3 292.253 403.566V403.216C292.054 400.472 291.126 397.831 289.563 395.566C291.636 398.047 292.884 401.113 293.133 404.336V404.336Z" fill="black"/>
<path id="Path 182" opacity="0.1" d="M311.543 318.056L301.763 317.866C301.755 317.862 301.747 317.859 301.738 317.859C301.729 317.859 301.721 317.862 301.713 317.866L289.213 346.126C287.027 351.017 285.352 356.121 284.213 361.356C280.573 378.456 282.863 386.976 285.643 391.186C282.513 387.496 279.283 379.086 283.313 360.186C284.429 354.948 286.088 349.84 288.263 344.946L300.853 316.686L312.383 316.916V316.986C312.293 317.106 311.983 317.486 311.543 318.056Z" fill="black"/>
<path id="Path 183" opacity="0.1" d="M385.243 325.726L385.413 325.776L385.243 325.726Z" fill="black"/>
<path id="Path 184" opacity="0.1" d="M381.653 325.566L371.853 322.616H371.803C371.223 323.256 357.053 338.966 346.403 351.686C336.883 363.056 320.193 362.166 316.173 361.766C315.443 361.686 314.703 361.626 313.973 361.576C303.043 360.876 298.743 359.576 297.303 356.816C299.353 358.816 303.863 359.816 313.063 360.376C313.803 360.376 314.533 360.486 315.263 360.556C319.263 360.956 335.973 361.846 345.493 350.486C356.143 337.756 370.323 322.046 370.903 321.406L385.163 325.726C384.015 325.44 382.822 325.386 381.653 325.566V325.566Z" fill="black"/>
</g>
<path id="Path 185" opacity="0.1" d="M265.623 757.486C265.623 757.486 251.823 761.256 249.153 755.336Z" fill="black"/>
<path id="Path 186" opacity="0.1" d="M353.233 754.656C353.233 754.656 337.233 758.786 333.533 752.396Z" fill="black"/>
<path id="Path 162" d="M386.163 519.856L389.523 540.696C392.063 540.296 394.7 539.846 397.433 539.346C396.383 533.256 394.093 519.346 394.723 517.036L390.493 513.416L386.163 519.856Z" fill="#65617D"/>
<path id="Path 163" opacity="0.1" d="M386.633 519.406L389.993 540.256C392.533 539.849 395.17 539.399 397.903 538.906C396.853 532.816 394.563 518.906 395.193 516.596L390.963 512.966L386.633 519.406Z" fill="black"/>
<path id="Ellipse 19" d="M391.793 523.746C392.737 523.746 393.503 522.17 393.503 520.226C393.503 518.282 392.737 516.706 391.793 516.706C390.849 516.706 390.083 518.282 390.083 520.226C390.083 522.17 390.849 523.746 391.793 523.746Z" fill="#D39999"/>
</g>
</g>
<defs>
<linearGradient id="paint0_linear" x1="481.64" y1="710.306" x2="481.64" y2="119.171" gradientUnits="userSpaceOnUse">
<stop stop-color="#808080" stop-opacity="0.251"/>
<stop offset="0.54" stop-color="#808080" stop-opacity="0.122"/>
<stop offset="1" stop-color="#808080" stop-opacity="0.102"/>
</linearGradient>
<linearGradient id="paint1_linear" x1="672.293" y1="150.975" x2="672.293" y2="150.975" gradientUnits="userSpaceOnUse">
<stop stop-color="#808080" stop-opacity="0.251"/>
<stop offset="0.54" stop-color="#808080" stop-opacity="0.122"/>
<stop offset="1" stop-color="#808080" stop-opacity="0.102"/>
</linearGradient>
<linearGradient id="paint2_linear" x1="844.859" y1="219.694" x2="844.859" y2="219.694" gradientUnits="userSpaceOnUse">
<stop stop-color="#808080" stop-opacity="0.251"/>
<stop offset="0.54" stop-color="#808080" stop-opacity="0.122"/>
<stop offset="1" stop-color="#808080" stop-opacity="0.102"/>
</linearGradient>
<linearGradient id="paint3_linear" x1="448.552" y1="209.751" x2="448.552" y2="209.751" gradientUnits="userSpaceOnUse">
<stop stop-color="#808080" stop-opacity="0.251"/>
<stop offset="0.54" stop-color="#808080" stop-opacity="0.122"/>
<stop offset="1" stop-color="#808080" stop-opacity="0.102"/>
</linearGradient>
</defs>
</svg>
